<svg width="18" height="18" viewBox="0 0 18 18" fill="none" xmlns="http://www.w3.org/2000/svg">
    <path d="M2.11953 13.0815C1.12517 11.4053 0.776936 9.42367 1.14022 7.50883C1.50351 5.59399 2.55332 3.87763 4.09253 2.68205C5.63173 1.48647 7.55446 0.893902 9.49965 1.01563C11.4448 1.13735 13.2787 1.96499 14.6568 3.34314C16.035 4.72128 16.8626 6.55513 16.9844 8.50032C17.1061 10.4455 16.5135 12.3682 15.318 13.9074C14.1224 15.4467 12.406 16.4965 10.4912 16.8598C8.57637 17.2231 6.59477 16.8748 4.91851 15.8805L4.91853 15.8804L2.15433 16.6702C2.03997 16.7029 1.91894 16.7043 1.80381 16.6745C1.68867 16.6447 1.5836 16.5846 1.4995 16.5005C1.4154 16.4164 1.35531 16.3113 1.32548 16.1962C1.29564 16.081 1.29714 15.96 1.32982 15.8457L2.11959 13.0815L2.11953 13.0815Z"
          stroke="#888888" stroke-width="1.5" stroke-linecap="round" stroke-linejoin="round"/>
</svg>

