<svg width="16" height="16" viewBox="0 0 16 16" fill="none" xmlns="http://www.w3.org/2000/svg">
<path d="M3.5 1.5L4.70891 2.59297" stroke="#888888" stroke-width="1.5" stroke-linecap="round" stroke-linejoin="round"/>
<path d="M12.5019 1.5L11.293 2.59303" stroke="#888888" stroke-width="1.5" stroke-linecap="round" stroke-linejoin="round"/>
<path d="M13 9.5C13 10.8261 12.4732 12.0979 11.5355 13.0355C10.5979 13.9732 9.32608 14.5 8 14.5C6.67392 14.5 5.40215 13.9732 4.46447 13.0355C3.52678 12.0979 3 10.8261 3 9.5V6.5C3 5.17392 3.52678 3.90215 4.46447 2.96447C5.40215 2.02678 6.67392 1.5 8 1.5C9.32608 1.5 10.5979 2.02678 11.5355 2.96447C12.4732 3.90215 13 5.17392 13 6.5V9.5Z" stroke="#888888" stroke-width="1.5" stroke-linecap="round" stroke-linejoin="round"/>
<path d="M14.5 7.5L1 7.5" stroke="#888888" stroke-width="1.5" stroke-linecap="round" stroke-linejoin="round"/>
<path d="M6.25 5.5C6.66421 5.5 7 5.16421 7 4.75C7 4.33579 6.66421 4 6.25 4C5.83579 4 5.5 4.33579 5.5 4.75C5.5 5.16421 5.83579 5.5 6.25 5.5Z" fill="#888888"/>
<path d="M9.75 5.5C10.1642 5.5 10.5 5.16421 10.5 4.75C10.5 4.33579 10.1642 4 9.75 4C9.33579 4 9 4.33579 9 4.75C9 5.16421 9.33579 5.5 9.75 5.5Z" fill="#888888"/>
<path d="M3 14.209L4.09297 13.0001" stroke="#888888" stroke-width="1.5" stroke-linecap="round" stroke-linejoin="round"/>
<path d="M12.707 14.0928L11.4981 12.9998" stroke="#888888" stroke-width="1.5" stroke-linecap="round" stroke-linejoin="round"/>
</svg>
