<svg viewBox="0 0 16 11" fill="none" xmlns="http://www.w3.org/2000/svg">
    <path fill-rule="evenodd" clip-rule="evenodd"
          d="M1.88952 2.55649C3.16089 1.28499 5.15594 0 8 0C10.8441 0 12.8391 1.28499 14.1105 2.55649C14.7446 3.1907 15.2019 3.82399 15.5013 4.29963C15.6513 4.53786 15.7625 4.73775 15.837 4.88013C15.8743 4.95136 15.9026 5.00831 15.922 5.04859C15.9317 5.06874 15.9392 5.08473 15.9445 5.09628L15.9509 5.11022L15.9529 5.11462L15.9538 5.11677C15.9539 5.11703 15.954 5.11727 15.4667 5.33385C15.954 5.55048 15.9539 5.55072 15.9538 5.55098L15.9535 5.55159L15.9528 5.55313L15.9509 5.55753L15.9445 5.57147C15.9391 5.58301 15.9316 5.599 15.9219 5.61914C15.9025 5.65942 15.8743 5.71636 15.837 5.78757C15.7624 5.92992 15.6513 6.12978 15.5013 6.36796C15.2019 6.8435 14.7446 7.47666 14.1104 8.11074C12.8391 9.38198 10.844 10.6667 8 10.6667C5.15598 10.6667 3.16094 9.38198 1.88956 8.11074C1.25541 7.47666 0.798135 6.8435 0.49869 6.36796C0.348706 6.12978 0.237557 5.92992 0.162984 5.78757C0.125678 5.71636 0.0974656 5.65942 0.0780694 5.61914C0.0683694 5.599 0.0608686 5.58301 0.0555326 5.57147L0.0491457 5.55753L0.0471604 5.55313L0.0464682 5.55159L0.0461971 5.55098C0.0460824 5.55072 0.0459759 5.55048 0.533333 5.33385C0.0459585 5.11727 0.0460649 5.11703 0.0461796 5.11677L0.0464507 5.11616L0.0471427 5.11462L0.0491277 5.11022L0.0555141 5.09628C0.0608497 5.08473 0.0683502 5.06874 0.0780497 5.04859C0.0974452 5.00831 0.125657 4.95136 0.162962 4.88013C0.237533 4.73775 0.34868 4.53786 0.498662 4.29963C0.798103 3.82399 1.25538 3.1907 1.88952 2.55649ZM0.533333 5.33385L0.0459585 5.11727C-0.0153255 5.25517 -0.0153192 5.41258 0.0459759 5.55048L0.533333 5.33385ZM1.12966 5.33383C1.19241 5.21628 1.28251 5.05666 1.40134 4.86792C1.66856 4.44345 2.07796 3.87661 2.64381 3.3107C3.77244 2.18194 5.51073 1.06667 8 1.06667C10.4893 1.06667 12.2276 2.18194 13.3562 3.3107C13.922 3.87661 14.3314 4.44345 14.5987 4.86792C14.7175 5.05666 14.8076 5.21628 14.8703 5.33383C14.8076 5.45134 14.7175 5.61091 14.5987 5.79958C14.3315 6.22395 13.9221 6.79066 13.3562 7.35645C12.2276 8.48495 10.4893 9.6 8 9.6C5.51069 9.6 3.77239 8.48495 2.64377 7.35645C2.07792 6.79066 1.66853 6.22395 1.40131 5.79958C1.2825 5.61091 1.1924 5.45134 1.12966 5.33383ZM15.4667 5.33385L15.954 5.55048C16.0153 5.41258 16.0153 5.25517 15.954 5.11727L15.4667 5.33385ZM8 3.20059C6.82179 3.20059 5.86667 4.15571 5.86667 5.33392C5.86667 6.51213 6.82179 7.46725 8 7.46725C9.17821 7.46725 10.1333 6.51213 10.1333 5.33392C10.1333 4.15571 9.17821 3.20059 8 3.20059ZM4.8 5.33392C4.8 3.56661 6.23269 2.13392 8 2.13392C9.76731 2.13392 11.2 3.56661 11.2 5.33392C11.2 7.10123 9.76731 8.53392 8 8.53392C6.23269 8.53392 4.8 7.10123 4.8 5.33392Z"
          fill="#888888"/>
</svg>

