<svg width="16" height="16" viewBox="0 0 16 16" fill="none" xmlns="http://www.w3.org/2000/svg">
    <path d="M4 12V9.76817C4 9.09758 4.09583 8.40602 4.2875 7.69352C4.4875 6.97053 4.75833 6.28946 5.1 5.65029C5.44167 5.00065 5.82083 4.45056 6.2375 4L7.825 5.1945C7.50833 5.84414 7.24167 6.53045 7.025 7.25344C6.80833 7.97642 6.7 8.80943 6.7 9.75246V12H4ZM8.175 12V9.76817C8.175 9.09758 8.27083 8.40602 8.4625 7.69352C8.6625 6.97053 8.93333 6.28946 9.275 5.65029C9.61667 5.00065 9.99583 4.45056 10.4125 4L12 5.1945C11.6833 5.84414 11.4167 6.53045 11.2 7.25344C10.9833 7.97642 10.875 8.80943 10.875 9.75246V12H8.175Z"
          fill="#888888"/>
</svg>
