<svg viewBox="0 0 36 32" fill="none" xmlns="http://www.w3.org/2000/svg">
    <path
            d="M32.5624 15.9626C32.5624 16.5244 32.5104 17.0862 32.4585 17.648C32.3705 18.4053 32.2317 19.156 32.043 19.8953V19.9975C31.8124 20.779 31.5349 21.5465 31.2121 22.2958C31.2121 22.3469 31.1602 22.398 31.1602 22.449C31.1602 22.5001 31.1082 22.5512 31.0563 22.6533C30.5456 23.7373 29.9189 24.7646 29.1867 25.7178C29.1348 25.7689 29.0828 25.82 29.0828 25.871C27.5538 27.7787 25.6055 29.3211 23.3839 30.3826C21.1623 31.4441 18.7252 31.997 16.2553 32L14.6453 31.8979L13.8144 31.7957L12.4641 31.5403L11.8929 31.3871H11.8409L10.9581 31.0807L10.4387 30.9274L10.0233 30.7231L9.40008 30.4678C9.34815 30.4678 9.29621 30.4678 9.29621 30.4167L8.67301 30.1613L8.04981 29.8038L7.58241 29.4973C5.30279 28.1181 3.42437 26.1827 2.12941 23.8791C2.02356 23.7372 1.93631 23.5828 1.86974 23.4195C1.66201 23.0619 1.50621 22.7044 1.35041 22.398C0.45061 20.3684 -0.00925495 18.1767 0.000141134 15.9626V15.554C0.0526971 14.6466 0.156726 13.7429 0.311741 12.847C0.446957 12.1522 0.637979 11.4691 0.883008 10.804C0.883008 10.7019 0.934942 10.6508 0.986875 10.5486C0.985738 10.4773 1.00364 10.4068 1.03881 10.3443C1.29848 9.73145 1.55814 9.11856 1.86974 8.50566C3.33672 5.79353 5.56487 3.55282 8.28922 2.05002C11.0136 0.547212 14.1195 -0.154455 17.2376 0.0284607C20.3557 0.211377 23.3547 1.27118 25.8781 3.08183C28.4015 4.89248 30.343 7.3778 31.4718 10.2422C31.5091 10.4234 31.5795 10.5964 31.6795 10.7529C31.7314 10.9062 31.7314 11.0594 31.7834 11.1615C31.8022 11.1823 31.8164 11.2065 31.8254 11.2329C31.8343 11.2592 31.8377 11.2871 31.8353 11.3148C31.8768 11.4319 31.9115 11.5513 31.9392 11.6723C32.0326 11.9382 32.1021 12.2116 32.1469 12.4895L32.3027 13.1024C32.2983 13.2236 32.3159 13.3447 32.3546 13.4599C32.4776 14.289 32.547 15.1249 32.5624 15.9626Z"
            fill="url(#paint0_radial_527_1455)"
    />
    <path
            d="M14.5415 28.8336V29.2422C14.532 29.3999 14.4969 29.555 14.4376 29.7018C14.4152 29.7859 14.3978 29.8712 14.3857 29.9572C14.3517 30.4186 14.2283 30.8694 14.0221 31.2852L13.8144 31.6938L12.4641 31.5405L11.8929 31.3873H11.8409L10.9581 31.0809L10.4387 30.9276L10.0233 30.7233L9.40008 30.468C9.34815 30.468 9.29621 30.468 9.29621 30.4169L8.67301 30.1615L8.04981 29.804L7.58241 29.4975C5.30279 28.1183 3.42437 26.183 2.12941 23.8793C2.02356 23.7374 1.93631 23.583 1.86974 23.4197C1.66201 23.0621 1.50621 22.7046 1.35041 22.3982C0.45061 20.3686 -0.00925495 18.1769 0.000141134 15.9628V15.5542C0.0526971 14.6468 0.156726 13.7431 0.311741 12.8472C0.446957 12.1524 0.637979 11.4693 0.883008 10.8042C0.883008 10.7021 0.934942 10.651 0.986875 10.5488C0.985738 10.4775 1.00364 10.407 1.03881 10.3445C1.93103 9.64005 2.8677 8.9918 3.84321 8.40371H4.36254C4.34375 8.38298 4.32946 8.35871 4.32053 8.33236C4.3116 8.30602 4.30822 8.27816 4.31061 8.25049H4.41448C4.82994 9.11876 5.24541 9.98703 5.60894 10.8553L6.85535 13.409C7.68628 15.1456 8.62108 16.78 9.55588 18.4654L12.3603 23.4707L13.6586 25.8712C14.0451 26.6357 14.3413 27.4411 14.5415 28.2718V28.8336Z"
            fill="#B28767"
    />
    <g style="mix-blend-mode: multiply" opacity="0.4">
        <path
                d="M14.5415 28.8336V29.2422C14.532 29.3999 14.4969 29.555 14.4376 29.7018C14.4152 29.7859 14.3978 29.8712 14.3857 29.9572C14.3517 30.4186 14.2283 30.8694 14.0221 31.2852L13.8144 31.6938L12.4641 31.5405L11.8929 31.3873H11.8409L10.9581 31.0809L10.4387 30.9276L10.0233 30.7233L9.40008 30.468C9.34815 30.468 9.29621 30.468 9.29621 30.4169L8.67301 30.1615L8.04981 29.804L7.58241 29.4975C5.30279 28.1183 3.42437 26.183 2.12941 23.8793C2.02356 23.7374 1.93631 23.583 1.86974 23.4197C1.66201 23.0621 1.50621 22.7046 1.35041 22.3982C0.45061 20.3686 -0.00925495 18.1769 0.000141134 15.9628V15.5542C0.0526971 14.6468 0.156726 13.7431 0.311741 12.8472C0.446957 12.1524 0.637979 11.4693 0.883008 10.8042C0.883008 10.7021 0.934942 10.651 0.986875 10.5488C0.985738 10.4775 1.00364 10.407 1.03881 10.3445C1.93103 9.64005 2.8677 8.9918 3.84321 8.40371H4.36254C4.34375 8.38298 4.32946 8.35871 4.32053 8.33236C4.3116 8.30602 4.30822 8.27816 4.31061 8.25049H4.41448C4.82994 9.11876 5.24541 9.98703 5.60894 10.8553L6.85535 13.409C7.68628 15.1456 8.62108 16.78 9.55588 18.4654L12.3603 23.4707L13.6586 25.8712C14.0451 26.6357 14.3413 27.4411 14.5415 28.2718V28.8336Z"
                fill="#786550"
        />
    </g>
    <path
            d="M17.138 5.49222H17.0861C17.0861 5.44114 17.0342 5.44114 17.0342 5.39007H16.9822C16.9303 5.28792 16.9303 5.18577 16.8784 5.13469C16.8264 5.08362 16.8264 5.03254 16.8264 4.98147L16.7226 4.7261L16.6187 4.21535C16.3633 3.77824 15.9845 3.42339 15.5281 3.19386L14.7491 2.83633L13.9182 2.63203C13.671 2.58646 13.4154 2.62237 13.1911 2.73418C12.9796 2.89097 12.8175 3.10347 12.7237 3.34708C12.7261 3.37475 12.7227 3.40261 12.7138 3.42895C12.7049 3.4553 12.6906 3.47958 12.6718 3.5003V4.21535V4.57287C12.6685 4.66082 12.6863 4.7483 12.7237 4.82824C12.7335 5.00248 12.7685 5.17445 12.8276 5.33899C12.8633 5.49709 12.9155 5.65113 12.9834 5.79866H13.0353C13.0353 5.84974 13.0353 5.90081 13.0872 5.90081H13.1392C13.1533 5.97724 13.1894 6.04811 13.243 6.10511L13.3988 6.30941L13.5027 6.46263C13.5546 6.51371 13.6066 6.61586 13.7104 6.66693L13.8143 6.76908H13.8662L14.2298 7.07553L14.3336 7.17768L14.4894 7.27983H14.7491L15.1646 7.43305H15.6839L16.0474 7.5352C16.3071 7.58628 16.4629 7.38198 16.5668 7.22875C16.7474 6.95586 16.8381 6.63483 16.8264 6.30941C16.8784 6.10511 16.8784 5.95189 16.9303 5.74759L17.0861 5.39007V5.28792V5.08362L17.138 5.49222Z"
            fill="#6A4D3B"
    />
    <g style="mix-blend-mode: screen">
        <path
                d="M12.7237 3.34708C12.8175 3.10347 12.9796 2.89097 13.1911 2.73418C13.4155 2.62237 13.671 2.58646 13.9182 2.63203L14.7491 2.83633L15.5281 3.19386C15.9845 3.42339 16.3634 3.77824 16.6187 4.21535C16.7272 4.40997 16.8143 4.61543 16.8784 4.82825C16.9303 4.87932 16.9303 4.98147 16.9823 5.08362C17.0651 5.20642 17.1184 5.34615 17.1381 5.49222C17.0861 5.49222 17.0861 5.39007 17.0342 5.33899C16.956 5.17239 16.8867 5.00191 16.8265 4.82825C16.6321 4.46909 16.4062 4.1273 16.1513 3.80675C15.689 3.37271 15.114 3.0723 14.4895 2.93848C14.2083 2.83309 13.905 2.79799 13.6066 2.83633C13.3505 2.91303 13.13 3.07571 12.9834 3.29601C12.8899 3.56189 12.8204 3.83534 12.7757 4.1132C12.767 4.53946 12.7844 4.96585 12.8276 5.39007V5.49222C12.7677 5.29284 12.7329 5.08701 12.7237 4.87932C12.594 4.37654 12.594 3.84986 12.7237 3.34708Z"
                fill="#6A4D3B"
        />
    </g>
    <g style="mix-blend-mode: multiply" opacity="0.47">
        <path
                d="M13.8145 6.82033C14.0796 7.02249 14.3783 7.17801 14.6974 7.28C14.9718 7.40966 15.2772 7.46266 15.5802 7.43323V7.33108C15.5283 6.97356 15.736 6.66711 15.736 6.36066C15.736 6.33357 15.7251 6.30759 15.7056 6.28843C15.6861 6.26927 15.6597 6.25851 15.6322 6.25851C15.5696 6.34499 15.4785 6.40751 15.3744 6.43544C15.2702 6.46337 15.1595 6.45499 15.0609 6.41174L14.6454 6.20744C14.8557 6.25199 15.0744 6.23728 15.2766 6.165C15.4787 6.09271 15.6559 5.9658 15.788 5.79884C15.8786 5.614 15.9073 5.40567 15.87 5.20378C15.8327 5.00189 15.7312 4.81683 15.5802 4.6752C15.3198 4.35101 15.0033 4.0744 14.6454 3.858C14.3376 3.6639 13.9668 3.59096 13.6068 3.6537C13.5064 3.67842 13.4147 3.72948 13.3415 3.80145C13.2684 3.87341 13.2164 3.96357 13.1913 4.0623C13.1949 3.84186 13.2674 3.62785 13.399 3.44941C13.5061 3.32897 13.6488 3.2445 13.8071 3.20787C13.9655 3.17123 14.1315 3.18425 14.2819 3.24511L14.8532 3.50048L15.4764 3.858L15.9957 4.31768C16.1822 4.50624 16.324 4.73296 16.4112 4.98165C16.5422 5.46079 16.4866 5.97076 16.2554 6.41174C16.2034 6.46281 16.3073 6.51389 16.3592 6.46281C16.5232 6.34752 16.6495 6.18781 16.7228 6.00314C16.8657 5.71743 16.937 5.40217 16.9305 5.0838C17.0344 5.33917 17.1902 5.54347 17.0344 5.84992L16.8786 6.20744C16.8266 6.41174 16.8266 6.56496 16.7747 6.76926C16.7863 7.09468 16.6957 7.4157 16.515 7.6886C16.4112 7.84183 16.2034 8.04612 15.9957 7.99505L15.6322 7.8929H15.1128L14.6974 7.73968L14.2819 7.53538C13.8541 7.22671 13.4849 6.84636 13.1913 6.41174L12.9316 5.95206C13.172 6.29007 13.4708 6.58395 13.8145 6.82033Z"
                fill="#6A4D3B"
        />
    </g>
    <path
            opacity="0.47"
            d="M13.8145 3.24512C14.2894 3.2842 14.7416 3.46207 15.1129 3.75586C15.4813 3.9998 15.8287 4.27312 16.1515 4.57306C16.2741 4.70148 16.3658 4.85538 16.4197 5.02336C16.4737 5.19134 16.4885 5.3691 16.4631 5.54348C16.4631 5.6967 16.3073 5.84992 16.2035 6.00315H16.1515C16.0619 6.12837 15.9919 6.2661 15.9438 6.41175C15.8239 6.70418 15.8057 7.02739 15.8919 7.33109H15.788C15.7362 7.07825 15.7362 6.81781 15.788 6.56497C15.7984 6.45637 15.8339 6.35154 15.8919 6.25852L15.788 6.36067C15.5936 6.43155 15.3857 6.45915 15.1791 6.44148C14.9726 6.42382 14.7726 6.36133 14.5935 6.25852C14.4055 6.15675 14.2588 5.99444 14.1781 5.79885H14.23C14.348 5.94818 14.4971 6.07099 14.6673 6.15907C14.8374 6.24716 15.0248 6.29847 15.2167 6.3096H15.6322L16.0477 5.95207H16.0996C16.2172 5.7619 16.3048 5.55524 16.3593 5.33918C16.3315 5.16269 16.2791 4.99082 16.2035 4.82843C15.9305 4.51608 15.6161 4.24122 15.2687 4.01124C14.9412 3.75026 14.5729 3.54327 14.1781 3.39834C14.0495 3.36354 13.9136 3.36419 13.7854 3.40022C13.6572 3.43625 13.5415 3.50628 13.451 3.60264C13.2873 3.84524 13.1972 4.1287 13.1913 4.41983H13.1394C13.1394 3.90909 13.2433 3.34727 13.8145 3.24512Z"
            fill="#2E1B0C"
    />
    <path
            d="M35.99 14.4812C35.938 15.8603 35.3148 17.1882 34.7436 18.414C34.6961 18.5758 34.6262 18.7305 34.5358 18.8737L34.2762 19.4355L34.1723 19.5376C34.1747 19.5653 34.1713 19.5932 34.1624 19.6195C34.1535 19.6458 34.1392 19.6701 34.1204 19.6909C33.8105 20.3945 33.3703 21.0354 32.822 21.5806C32.5506 21.8299 32.2549 22.0523 31.9392 22.2446C31.6748 22.3771 31.396 22.4799 31.1082 22.551C31.1082 22.6021 31.1082 22.6021 31.0563 22.6021H29.0309L28.5116 22.8064H28.148L27.8364 22.9086L27.369 23.0618H26.1746C25.7332 23.026 25.2976 22.9403 24.8762 22.8064L23.5779 22.5C23.1864 22.374 22.7875 22.2717 22.3834 22.1935C21.9781 22.0834 21.5553 22.0488 21.137 22.0914C20.7714 22.174 20.4211 22.3119 20.0984 22.5L19.631 22.8064L19.3713 23.0618C19.3205 23.1749 19.2502 23.2786 19.1636 23.3682L18.6962 24.5429C18.4365 25.0026 18.1768 25.5134 17.9691 25.973C17.7614 26.4327 17.5017 26.9945 17.294 27.5053C17.0862 28.016 16.8266 28.68 16.6188 29.2418C16.4918 29.5402 16.3876 29.8475 16.3072 30.1612C16.2034 30.5187 16.1514 30.8251 16.0476 31.1316C15.9437 31.438 15.9437 31.1316 15.8918 31.0805C15.8035 30.7474 15.7684 30.4027 15.7879 30.059C15.797 29.8513 15.8319 29.6455 15.8918 29.4461C15.758 29.7198 15.6704 30.0131 15.6321 30.3144C15.5373 30.7829 15.3616 31.232 15.1128 31.6423C15.0608 31.6934 15.0089 31.6423 15.0089 31.5912V31.3359L14.8012 31.6423L14.6454 31.8977L13.8144 31.7955L12.4641 31.5402L11.8929 31.3869H11.8409L10.9581 31.0805L10.4387 30.9273V30.5187C10.4907 30.1101 10.4907 29.7526 10.5426 29.395V29.2929C10.4421 29.5087 10.3554 29.7304 10.2829 29.9569C10.1795 30.2411 10.0928 30.531 10.0233 30.8251L9.40008 30.5698C9.45201 30.3144 9.45201 30.059 9.50395 29.8036C9.55588 29.5483 9.55588 29.1907 9.55588 28.9354L9.40008 29.5993C9.34815 29.9058 9.34815 30.2633 9.29621 30.5698L8.67301 30.3144C8.56915 29.7526 8.51721 29.1907 8.46528 28.6289C8.41335 28.0671 8.41335 28.2714 8.41335 28.1182C8.41335 27.9649 8.36141 28.7311 8.30948 29.0375C8.27143 29.3553 8.18385 29.6653 8.04981 29.9569L7.58241 29.6504C7.49208 29.5073 7.42218 29.3526 7.37468 29.1907C7.24677 28.823 7.14269 28.4477 7.06308 28.0671C7.04046 27.7229 6.98835 27.3812 6.90728 27.0456C6.85535 26.5349 6.75148 26.0752 6.69955 25.6155V26.0752C6.64761 26.5859 6.75148 27.0967 6.69955 27.6074C6.69723 27.8372 6.64406 28.0638 6.54375 28.2714C6.53057 28.2801 6.51556 28.2857 6.49985 28.2877C6.48414 28.2898 6.46815 28.2883 6.45311 28.2834C6.43808 28.2785 6.42438 28.2702 6.41309 28.2593C6.40179 28.2484 6.39319 28.235 6.38795 28.2203C6.06507 27.582 5.87107 26.8882 5.81668 26.1773C5.76474 25.8198 5.76474 25.4623 5.71281 25.1048C5.66088 24.7472 5.66088 24.2876 5.66088 23.879C5.66088 23.4704 5.71281 23.4704 5.71281 23.215C5.50508 24.0833 5.45314 25.0026 5.19348 25.8709C4.93381 26.7392 5.03768 25.922 5.03768 25.8709C4.79726 24.8316 4.762 23.7566 4.93381 22.7043C4.98574 22.551 4.98574 22.3978 5.03768 22.2446C4.62221 22.9596 4.41448 23.7768 3.73934 24.2365C3.06421 24.6962 3.58354 24.1854 3.58354 24.1343C3.70643 23.6891 3.91829 23.2724 4.20674 22.9086C4.41467 22.5935 4.5723 22.249 4.67414 21.8871C4.47279 22.0856 4.29825 22.3087 4.15481 22.551C3.97854 22.8591 3.75023 23.1355 3.47968 23.3682L3.01228 23.6236L2.85648 23.5215C2.80498 23.1399 2.85879 22.7518 3.01228 22.3978C3.17403 21.9972 3.31274 21.588 3.42774 21.172C3.48071 21.041 3.51564 20.9036 3.53161 20.7634C3.28057 21.0864 3.08737 21.4491 2.96034 21.836C2.89623 22.0488 2.80918 22.2543 2.70068 22.4489L2.38908 23.2661C2.27162 23.5103 2.18444 23.7675 2.12941 24.0322C2.02356 23.8903 1.93631 23.7359 1.86974 23.5725C1.78228 22.679 1.87044 21.7774 2.12941 20.9166L1.97361 21.1209L1.35041 22.3978C0.45061 20.3682 -0.00925495 18.1765 0.000141134 15.9624V15.707L0.155941 15.5538H0.000141134C0.0526971 14.6465 0.156726 13.7428 0.311741 12.8468C0.446957 12.1521 0.637979 11.4689 0.883008 10.8039H0.986875L1.50621 10.5485H0.986875C0.985738 10.4771 1.00364 10.4067 1.03881 10.3442C1.29848 9.7313 1.55814 9.1184 1.86974 8.5055C2.50868 8.32966 3.13358 8.10773 3.73934 7.84153L5.29734 7.12649H5.34928L6.85535 6.30929L8.41335 5.4921L9.50395 5.13458L9.97135 4.93028H10.1791L10.5426 4.82813C10.5426 4.82142 10.544 4.81478 10.5466 4.80858C10.5492 4.80239 10.553 4.79676 10.5578 4.79201C10.5626 4.78727 10.5684 4.78351 10.5747 4.78094C10.581 4.77838 10.5877 4.77705 10.5945 4.77705L11.4255 4.41953H11.8929L12.2045 4.31738H14.8012L15.3205 4.41953L15.7879 4.52168H16.2034L16.7227 4.62383H16.8266L18.3846 4.98135L19.1116 5.23673L19.631 5.33888L20.2022 5.54317L20.8254 5.6964L21.4486 5.9007C22.9547 6.41144 24.4608 6.97326 25.9668 7.63723L30.4331 9.68022L31.4718 10.191L32.6143 10.8039L33.601 11.2635H33.653L33.9646 11.4168L34.1723 11.5189C34.2242 11.57 34.2762 11.57 34.2762 11.6211C34.7956 11.8659 35.2294 12.257 35.5226 12.7447C35.8787 13.2526 36.044 13.8666 35.99 14.4812Z"
            fill="#B28767"
    />
    <g style="mix-blend-mode: multiply" opacity="0.56">
        <path
                d="M27.4209 9.06726C26.0706 8.45436 24.7204 7.79039 23.3182 7.22857C21.938 6.60358 20.515 6.07451 19.0596 5.64526C17.6055 5.20413 16.1087 4.91314 14.5933 4.77699C14.5414 4.77699 14.5414 4.87914 14.5933 4.93021C15.0754 5.14101 15.5151 5.43509 15.8917 5.79848C15.5346 5.59339 15.15 5.43865 14.7491 5.33881C14.6972 5.33881 14.6453 5.38989 14.6972 5.44096C15.2816 5.9065 15.6851 6.55583 15.8397 7.27965C15.6252 6.89424 15.3441 6.54857 15.0088 6.25815H14.9569C14.7863 6.44964 14.662 6.67664 14.5933 6.92213C14.4985 7.42748 14.481 7.94393 14.5414 8.45436C14.5933 8.81189 14.5933 9.11834 14.6453 9.47586C14.6972 9.83338 14.3856 8.81189 14.2817 8.45436C14.1779 8.09684 14.1779 8.40329 14.1779 8.45436C14.1779 8.50544 14.2298 9.93553 13.9701 10.5995C13.8663 10.0377 13.7105 9.47586 13.6066 8.86296H13.5547C13.3436 8.96162 13.1132 9.01391 12.8795 9.01619C12.4013 9.00547 11.9278 8.91925 11.4773 8.76081C11.1305 8.66222 10.8109 8.4876 10.5425 8.25007L11.5812 8.45436C11.5962 8.44921 11.6097 8.44075 11.6208 8.42964C11.632 8.41853 11.6404 8.40506 11.6454 8.39027C11.6504 8.37548 11.6519 8.35976 11.6498 8.34431C11.6476 8.32886 11.642 8.31409 11.6331 8.30114C11.277 8.16457 10.9442 7.9751 10.6464 7.73932C10.1788 7.34985 9.83599 6.83534 9.65967 6.25815C9.50797 5.92166 9.45404 5.5504 9.50387 5.18559L10.0751 4.93021C11.9493 4.15775 14.0301 4.01415 15.9955 4.52162C17.8132 4.98129 19.6309 5.38989 21.4485 6.00278C23.2662 6.61568 24.4607 7.07535 25.9668 7.73932L30.433 9.78231L32.6142 10.9059L33.6529 11.4167L31.6794 10.7527C30.2139 10.3106 28.7893 9.7467 27.4209 9.06726Z"
                fill="#9C8268"
        />
    </g>
    <g style="mix-blend-mode: multiply" opacity="0.56">
        <path
                d="M20.2542 9.68038C20.7857 9.7536 21.2878 9.9652 21.7083 10.2933C21.9448 10.5315 22.1381 10.8079 22.2796 11.1105C22.4316 11.4396 22.5533 11.7814 22.6431 12.132C22.7392 12.6716 22.7567 13.2219 22.695 13.7663C22.6452 13.5395 22.5381 13.3287 22.3834 13.1535L22.2276 13.0002H21.2928C20.694 12.9736 20.1087 12.8166 19.579 12.5406C18.7481 12.0809 17.8652 11.2637 18.073 10.2422H18.021L16.9304 10.089C17.4255 9.87538 17.9509 9.73759 18.4884 9.68038C19.0725 9.5792 19.6701 9.5792 20.2542 9.68038Z"
                fill="#9C8268"
        />
    </g>
    <g style="mix-blend-mode: multiply" opacity="0.58">
        <path
                d="M34.1203 19.7418C33.404 20.062 32.5985 20.134 31.8352 19.9461C31.5684 19.8667 31.3206 19.7354 31.1064 19.5599C30.8923 19.3844 30.7163 19.1684 30.5888 18.9246C30.3822 18.5481 30.2751 18.1266 30.2772 17.6988C30.2339 17.2874 30.2691 16.8717 30.3811 16.473C30.4292 16.1184 30.5344 15.7736 30.6927 15.4515C30.8485 14.9918 31.0562 14.5322 31.264 14.0725C31.4726 13.6027 31.7339 13.1573 32.043 12.7445C32.2972 12.3423 32.6124 11.9806 32.9778 11.672C33.1663 11.5231 33.3764 11.4026 33.601 11.3145L34.2761 11.723C34.7831 11.9857 35.2125 12.3727 35.5225 12.8467C35.8559 13.3265 36.0201 13.9007 35.9899 14.4811C35.938 15.8601 35.3148 17.188 34.7435 18.4138L34.1203 19.7418Z"
                fill="#9C8268"
        />
    </g>
    <g style="mix-blend-mode: multiply" opacity="0.58">
        <path
                d="M28.096 22.296C28.801 22.3978 29.5126 22.449 30.2252 22.4492C30.7295 22.4645 31.234 22.4303 31.7313 22.3471H31.939C31.0726 22.783 30.1072 22.9939 29.1346 22.96H29.0308C27.9891 22.7993 26.9859 22.4531 26.0706 21.9385L28.096 22.296Z"
                fill="#9C8268"
        />
    </g>
    <g style="mix-blend-mode: multiply" opacity="0.3">
        <path
                d="M10.8019 29.5486C10.8024 30.0632 10.8545 30.5764 10.9575 31.0809L10.4387 30.9277V30.5191C10.4906 30.1105 10.4906 29.7529 10.5425 29.3954L10.8537 28.4761C10.8139 28.8322 10.7965 29.1904 10.8019 29.5486Z"
                fill="#9C8268"
        />
    </g>
    <g style="mix-blend-mode: multiply" opacity="0.3">
        <path
                d="M27.8364 23.3174L27.369 23.4706H26.1745C25.7332 23.4348 25.2976 23.3491 24.8762 23.2152L23.5779 22.9088C23.1864 22.7829 22.7875 22.6805 22.3834 22.6023C21.978 22.4922 21.5553 22.4576 21.137 22.5002C20.7714 22.5829 20.421 22.7207 20.0983 22.9088L19.6309 23.2152L19.3712 23.4706C19.3205 23.5838 19.2502 23.6875 19.1635 23.7771L18.6961 24.5432C18.4364 25.0029 18.1768 25.5136 17.969 25.9733C17.7613 26.4329 17.5016 26.9948 17.2939 27.5055C17.0862 28.0163 16.8265 28.6802 16.6188 29.2421C16.4918 29.5404 16.3876 29.8477 16.3072 30.1614C16.2033 30.5189 16.1514 30.8254 16.0475 31.1318C15.9436 31.4383 15.9436 31.1318 15.8917 31.0807C15.8034 30.7476 15.7684 30.403 15.7878 30.0592C15.797 29.8516 15.8319 29.6457 15.8917 29.4464C15.758 29.7201 15.6703 30.0133 15.632 30.3146C15.5372 30.7832 15.3616 31.2323 15.1127 31.6426C15.0608 31.6936 15.0088 31.6426 15.0088 31.5915V31.3361L14.8011 31.6426L14.6453 31.8979L13.8144 31.7958L12.4641 31.5404C12.6718 31.0807 12.8796 30.6211 13.0354 30.1614C13.2743 29.6634 13.4824 29.1518 13.6586 28.6292C13.7749 28.1926 13.8616 27.749 13.9182 27.3012C13.9825 28.6991 13.807 30.0977 13.3989 31.4383C13.347 31.5404 13.4508 31.5404 13.5028 31.4893C13.6719 31.2331 13.8113 30.959 13.9182 30.6721C14.1725 30.0755 14.3808 29.4608 14.5414 28.8335L14.6972 28.3738L14.5414 29.2421C14.4895 29.4464 14.4895 29.5996 14.4376 29.7528C14.3856 30.1614 14.2818 30.57 14.2298 30.9786C14.1779 31.3872 14.3337 31.0807 14.3856 31.0297C14.4376 30.9786 14.8011 30.2635 15.0088 29.8039C15.3891 28.7597 15.6673 27.6823 15.8398 26.5862C15.8238 27.1754 15.9116 27.7629 16.0994 28.3227C16.0994 28.3738 16.2033 28.4249 16.2033 28.3227C16.2033 28.2206 16.2552 28.1184 16.3072 28.0163C16.5382 27.1345 16.8156 26.265 17.1381 25.4115C17.4366 24.5155 17.9333 23.6957 18.5922 23.0109C18.9576 22.7092 19.3586 22.4519 19.7867 22.2448L20.6177 22.0405H21.5005C22.1242 22.1153 22.7352 22.2698 23.3182 22.5002L25.1359 23.062C25.836 23.2058 26.5499 23.2743 27.2651 23.2663H27.8364V23.3174Z"
                fill="#9C8268"
        />
    </g>
    <g style="mix-blend-mode: multiply" opacity="0.3">
        <path
                d="M10.3868 29.6507C10.3331 29.7077 10.2971 29.7786 10.2829 29.855C10.1795 30.1393 10.0928 30.4292 10.0233 30.7233L9.40008 30.4679C9.45201 30.2126 9.45201 29.9572 9.50395 29.7018C9.55588 29.4464 9.55588 29.0889 9.55588 28.8335L9.40008 29.4975C9.34815 29.804 9.34815 30.1615 9.29621 30.4679L8.67301 30.2126C8.56915 29.6507 8.51721 29.0889 8.46528 28.5271C8.41335 27.9653 8.41335 28.1696 8.41335 28.0164C8.41335 27.8631 8.36141 28.6292 8.30948 28.9357C8.27144 29.2534 8.18385 29.5635 8.04981 29.855L7.58241 29.5486C7.49208 29.4055 7.42218 29.2508 7.37468 29.0889C7.24677 28.7212 7.14269 28.3459 7.06308 27.9653C7.04047 27.6211 6.98835 27.2794 6.90728 26.9438C6.85535 26.433 6.75148 25.9734 6.69955 25.5137V25.9734C6.64761 26.4841 6.75148 26.9949 6.69955 27.5056C6.69723 27.7354 6.64406 27.962 6.54375 28.1696C6.53057 28.1783 6.51556 28.1838 6.49985 28.1859C6.48414 28.188 6.46815 28.1865 6.45311 28.1816C6.43808 28.1767 6.42438 28.1684 6.41309 28.1575C6.40179 28.1465 6.39319 28.1332 6.38795 28.1185C6.06507 27.4802 5.87107 26.7864 5.81668 26.0755C5.76475 25.718 5.76475 25.3605 5.71281 25.0029C5.66088 24.6454 5.66088 24.1858 5.66088 23.7772C5.66088 23.3686 5.71281 23.3686 5.71281 23.1132C5.50508 23.9815 5.45315 24.9008 5.19348 25.7691C4.93381 26.6373 5.03768 25.8201 5.03768 25.7691C4.79726 24.7298 4.762 23.6548 4.93381 22.6024C4.98574 22.4492 4.98574 22.296 5.03768 22.1428C4.62221 22.8578 4.41448 23.675 3.73934 24.1347C3.06421 24.5944 3.58354 24.0836 3.58354 24.0325C3.70643 23.5873 3.91829 23.1706 4.20674 22.8067C4.41467 22.4917 4.5723 22.1472 4.67414 21.7852C4.47279 21.9837 4.29825 22.2069 4.15481 22.4492C3.97854 22.7573 3.75023 23.0337 3.47968 23.2664L3.01228 23.5218L2.85648 23.4196C2.80498 23.0381 2.85879 22.65 3.01228 22.296C3.17403 21.8954 3.31274 21.4861 3.42774 21.0702C3.48071 20.9392 3.51564 20.8017 3.53161 20.6616C3.28057 20.9846 3.08737 21.3473 2.96034 21.7342C2.89623 21.947 2.80918 22.1524 2.70068 22.3471L2.38908 23.1643C2.27162 23.4085 2.18444 23.6657 2.12941 23.9304C2.02356 23.7885 1.93631 23.6341 1.86974 23.4707C1.79546 22.611 1.8835 21.7452 2.12941 20.917L1.97361 21.1213L1.35041 22.3981C0.45061 20.3686 -0.00925495 18.1768 0.000141134 15.9627V15.7074L0.155941 15.5541H0.000141134C0.0526971 14.6468 0.156726 13.7431 0.311741 12.8472C0.311741 12.8983 0.363675 12.9493 0.415608 12.8983C0.693823 12.8832 0.962833 12.795 1.19461 12.6429C1.65564 12.437 2.09125 12.1799 2.49294 11.8768C2.85762 11.6592 3.23973 11.4713 3.63548 11.3149C3.47506 11.5456 3.30168 11.7673 3.11614 11.9789C2.20714 12.8317 1.23505 13.617 0.207875 14.3283C0.155941 14.3283 0.207875 14.4305 0.259808 14.4305L1.29848 14.0219C2.28521 13.5622 3.16808 13.0515 4.10288 12.5407L3.99901 12.6429C3.02683 13.4199 2.21577 14.3736 1.61008 15.452C1.61008 15.5031 1.66201 15.6052 1.71394 15.5031L2.49294 14.8902L3.16808 14.4305C2.87829 14.711 2.61736 15.0189 2.38908 15.3498C1.78045 16.2737 1.29194 17.2689 0.934942 18.3122C0.883008 18.3632 0.986875 18.4143 1.03881 18.3632L1.50621 17.6993C1.84499 17.1915 2.22722 16.713 2.64874 16.2692C2.01261 17.1453 1.55416 18.1337 1.29848 19.1804C1.30372 19.1951 1.31232 19.2085 1.32362 19.2194C1.33491 19.2304 1.34861 19.2386 1.36364 19.2435C1.37868 19.2485 1.39467 19.2499 1.41038 19.2479C1.42609 19.2458 1.4411 19.2402 1.45428 19.2315L1.97361 18.6186C2.17319 18.4568 2.34809 18.2676 2.49294 18.0568C2.1025 18.8062 1.85602 19.62 1.76588 20.4573C1.76588 20.5084 1.86974 20.5595 1.86974 20.5084L2.54488 19.4869C3.01228 18.8229 3.53161 18.21 4.05094 17.5971C3.62009 18.4835 3.27243 19.4066 3.01228 20.3552C3.01228 20.4573 3.11614 20.4573 3.16808 20.4062L3.68741 19.589L4.67414 18.1589L4.46641 18.6186C4.01745 19.483 3.71902 20.4152 3.58354 21.3766C3.58354 21.4277 3.68741 21.4277 3.68741 21.4277C3.93765 21.2326 4.16419 21.0099 4.36254 20.7638C4.82994 20.2019 5.24541 19.6401 5.66088 19.0272C5.33198 19.8617 4.89565 20.6513 4.36254 21.3766C4.31061 21.4277 4.36254 21.5299 4.46641 21.4788C4.57028 21.4277 5.81668 19.9466 6.43988 19.1294C6.32225 19.3377 6.23485 19.5612 6.18021 19.7933C5.79216 20.6778 5.68359 21.6565 5.86861 22.6024C5.86861 22.6535 5.97248 22.6535 5.97248 22.6024C6.21123 21.7936 6.56065 21.0204 7.01115 20.3041L6.85535 20.8148C6.46649 21.7528 6.30641 22.7674 6.38795 23.7772C6.38795 23.8282 6.49181 23.8793 6.49181 23.8282C6.66969 23.4629 6.82575 23.0878 6.95921 22.7046C7.06308 22.3981 7.11501 22.0917 7.21888 21.7852C7.32275 21.4788 7.16695 22.1428 7.11501 22.296C6.84423 23.3468 6.91691 24.4548 7.32275 25.4626C7.32275 25.5648 7.42661 25.5137 7.42661 25.4626C7.45219 24.726 7.61044 23.9997 7.89401 23.3175C7.8523 23.4142 7.83451 23.5192 7.84208 23.6239C7.64226 24.7257 7.67763 25.8562 7.94595 26.9438C7.99788 26.9949 8.10175 26.9949 8.10175 26.9438C8.10175 26.8927 8.25755 25.9734 8.30948 25.5137C8.45118 24.8037 8.64205 24.104 8.88075 23.4196C8.82049 23.7228 8.78575 24.0302 8.77688 24.339C8.70775 25.0519 8.6904 25.7688 8.72495 26.4841C8.72262 27.1935 8.82764 27.8992 9.03655 28.5782C9.08848 28.6292 9.19235 28.6292 9.19235 28.5782L9.34815 27.5567L9.65975 26.382C9.56486 26.9389 9.54739 27.5059 9.60781 28.0674C9.61306 28.0821 9.62166 28.0955 9.63296 28.1064C9.64425 28.1173 9.65794 28.1256 9.67298 28.1305C9.68802 28.1355 9.70401 28.1369 9.71972 28.1349C9.73543 28.1328 9.75044 28.1272 9.76361 28.1185C9.97135 27.5567 10.231 27.0459 10.4387 26.4841C10.2047 27.506 10.152 28.5601 10.2829 29.5997C10.2829 29.6507 10.3349 29.6507 10.3868 29.6507Z"
                fill="#9C8268"
        />
    </g>
    <g style="mix-blend-mode: multiply" opacity="0.3">
        <path
                d="M5.3493 7.12676L4.4145 8.14825C4.38696 8.14825 4.36054 8.15901 4.34106 8.17817C4.32158 8.19733 4.31064 8.22331 4.31064 8.2504L4.15484 8.40362L3.53164 9.01652C2.7007 9.88479 2.02557 10.8552 0.986901 11.5192C0.934968 11.5703 0.986901 11.6724 1.03883 11.6213C1.55332 11.448 2.05632 11.2433 2.5449 11.0084L0.311768 12.796C0.446984 12.1013 0.638005 11.4181 0.883035 10.7531H0.986901L1.50624 10.4977H0.986901C0.985765 10.4263 1.00367 10.3559 1.03883 10.2934C1.2985 9.68049 1.55817 9.0676 1.86977 8.4547C2.50871 8.27885 3.1336 8.05693 3.73937 7.79073L5.29737 7.07568L5.3493 7.12676Z"
                fill="#9C8268"
        />
    </g>
    <path
            d="M33.8607 19.8442C33.0297 20.406 31.9911 20.0995 31.3159 19.1802C30.7976 18.4526 30.5923 17.5532 30.7447 16.6775C31.0726 14.7726 32.0641 13.0392 33.5491 11.7744C34.2761 11.2125 35.159 12.2851 35.5225 12.8469C35.856 13.3268 36.0202 13.9009 35.9899 14.4813C35.8545 16.1392 35.3396 17.7456 34.4839 19.1802C34.3171 19.4355 34.1061 19.6602 33.8607 19.8442Z"
            fill="#5E4F3D"
    />
    <g style="mix-blend-mode: screen">
        <path
                d="M34.5879 18.6693C34.8916 17.8401 35.1176 16.9853 35.263 16.1156C35.4101 15.4265 35.4277 14.7168 35.3149 14.0215C35.2727 13.4288 35.0562 12.861 34.6917 12.3871C34.4384 12.0497 34.0695 11.8138 33.6531 11.7231C34.3801 11.3145 35.2111 12.285 35.5227 12.8468C35.8561 13.3266 36.0203 13.9008 35.9901 14.4812C35.8546 16.1391 35.3398 17.7454 34.484 19.18C34.3973 19.2697 34.327 19.3733 34.2763 19.4865L34.5879 18.6693Z"
                fill="#5E4F3D"
        />
    </g>
    <g style="mix-blend-mode: multiply" opacity="0.38">
        <path
                d="M30.7447 16.6776C31.0726 14.7727 32.0641 13.0393 33.5491 11.7744H33.6529C33.2484 12.1508 32.8988 12.5805 32.6143 13.0513C32.2738 13.6403 32.0285 14.2779 31.8872 14.941C31.7756 15.3958 31.6889 15.8561 31.6275 16.3201C31.6168 16.5596 31.6342 16.7995 31.6795 17.0351C31.711 17.2425 31.801 17.4372 31.9391 17.5969C32.1091 17.7021 32.3137 17.7387 32.5104 17.6991C32.7052 17.5919 32.8807 17.4539 33.0297 17.2905C33.2965 16.8819 33.6102 16.5049 33.9645 16.1668C34.0364 16.0924 34.1277 16.0388 34.2284 16.0117C34.3291 15.9847 34.4354 15.9854 34.5358 16.0136C34.6104 16.0067 34.6854 16.0225 34.7505 16.0591C34.8156 16.0957 34.8675 16.1512 34.8993 16.2179C34.9485 16.2832 34.9792 16.3601 34.9884 16.4409C34.9975 16.5216 34.9847 16.6033 34.9513 16.6776C34.9238 16.8872 34.8715 17.0929 34.7955 17.2905C34.5843 17.7326 34.3413 18.1593 34.0684 18.5673L33.4971 19.3845C33.4452 19.4867 33.4971 19.5378 33.601 19.4867L34.4839 18.9249L34.7435 18.6695C34.6466 18.8345 34.5599 19.005 34.4839 19.1802C34.3171 19.4356 34.1061 19.6603 33.8607 19.8442C33.0297 20.406 31.9911 20.0996 31.3159 19.1802C30.7976 18.4526 30.5923 17.5532 30.7447 16.6776Z"
                fill="#5E4F3D"
        />
    </g>
    <path
            d="M28.3038 23.1637C27.9724 23.0648 27.6698 22.8899 27.4209 22.6533H27.9922C28.5154 22.6538 29.0372 22.7051 29.5502 22.8064H29.0828L28.5115 23.0106L28.3038 23.1637Z"
            fill="#5E4F3D"
    />
    <path
            d="M33.2377 16.8821L33.6012 16.5246L34.0686 16.167C34.2244 16.116 34.4321 16.0138 34.5879 16.116C34.6718 16.1687 34.7336 16.2492 34.7622 16.3429C34.7908 16.4366 34.7843 16.5373 34.7437 16.6267C34.7418 16.7528 34.7059 16.8762 34.6399 16.9842C34.6399 17.0353 34.5879 17.0864 34.5879 17.1375C34.5879 17.1885 34.536 17.1885 34.4841 17.2396H34.4321V17.0864C34.4576 17.0383 34.4751 16.9866 34.4841 16.9332C34.4841 16.8821 34.536 16.831 34.536 16.7289C34.5404 16.6076 34.5228 16.4865 34.4841 16.3713H34.4321C34.4184 16.3713 34.4052 16.3767 34.3954 16.3863C34.3857 16.3959 34.3802 16.4089 34.3802 16.4224C34.2763 16.4735 34.2763 16.5246 34.2244 16.6267C34.1186 16.7686 34.0313 16.923 33.9647 17.0864C33.8609 17.2396 33.8089 17.3928 33.6531 17.4439C33.5713 17.506 33.4709 17.5397 33.3675 17.5397C33.2641 17.5397 33.1637 17.506 33.0819 17.4439C32.9261 17.2396 33.0819 17.0353 33.2377 16.8821Z"
            fill="#211415"
    />
    <g style="mix-blend-mode: multiply">
        <path
                d="M21.0332 8.86328C21.2012 8.86671 21.3641 8.92014 21.5006 9.01651L22.0199 9.37403C22.1959 9.49004 22.3389 9.64824 22.4354 9.8337C22.5082 9.88889 22.5688 9.95813 22.6135 10.0372C22.6581 10.1162 22.6859 10.2034 22.6951 10.2934H22.6431L22.3835 9.8337L21.968 9.4251C21.7016 9.1733 21.3826 8.98159 21.0332 8.86328Z"
                fill="#9C8268"
        />
    </g>
    <g style="mix-blend-mode: multiply">
        <path
                d="M21.7082 9.47607C22.027 9.72167 22.3225 9.99519 22.5911 10.2933C22.7419 10.4312 22.8499 10.6082 22.9026 10.804C22.9726 11.0007 22.9905 11.2116 22.9546 11.4169C22.9546 11.468 22.9027 11.4169 22.8507 11.3658V11.5701H22.7988C22.8032 11.4489 22.7856 11.3278 22.7469 11.2126C22.7364 11.104 22.7009 10.9992 22.643 10.9062H22.6949L22.8507 11.3148C22.8363 11.1411 22.8015 10.9697 22.7469 10.804C22.6803 10.6407 22.593 10.4862 22.4872 10.3443C22.2499 10.0503 21.9699 9.79217 21.6562 9.57822L21.7082 9.47607Z"
                fill="#9C8268"
        />
    </g>
    <g style="mix-blend-mode: multiply">
        <path
                d="M18.696 8.8633L18.7998 8.76123H18.9036L18.7479 8.8633C18.696 8.91434 18.6442 8.8633 18.696 8.8633Z"
                fill="#9C8268"
        />
    </g>
    <g style="mix-blend-mode: multiply">
        <path
                d="M18.9039 9.0166C18.9039 9.0166 18.9558 9.06764 18.9039 9.06764C18.852 9.06764 18.8001 9.0166 18.9039 9.0166Z"
                fill="#9C8268"
        />
    </g>
    <g style="mix-blend-mode: multiply">
        <path
                d="M17.7613 9.98721L18.2287 9.83398H19.7867L20.4099 9.98721C21.0864 10.091 21.7081 10.4147 22.1757 10.9066C22.3043 11.0721 22.3931 11.2642 22.4353 11.4684C22.4873 11.5705 22.4873 11.6727 22.5392 11.7748C22.5911 11.877 22.5911 11.9791 22.5392 12.0302H22.4353C22.4053 12.004 22.3867 11.9674 22.3834 11.928C22.3315 11.8259 22.3315 11.7237 22.2795 11.6727C22.2776 11.5466 22.2418 11.4232 22.1757 11.3152L22.3315 11.8259C22.3763 12.1131 22.3937 12.4038 22.3834 12.6942C22.3315 12.7452 22.2795 12.6431 22.2795 12.6431C22.2955 12.5546 22.277 12.4634 22.2276 12.3877H22.0718C22.0718 12.4013 22.0663 12.4143 22.0566 12.4238C22.0469 12.4334 22.0337 12.4388 22.0199 12.4388H21.8121C21.3959 12.5315 20.9607 12.4958 20.5657 12.3366C19.7938 12.2027 19.0948 11.8047 18.5923 11.213C18.448 11.0311 18.3421 10.8227 18.2807 10.6001C18.2273 10.4165 18.2273 10.2219 18.2807 10.0383H17.8652C17.7613 10.1404 17.7094 9.98721 17.7613 9.98721Z"
                fill="#73614C"
        />
    </g>
    <path
            d="M19.5271 10.0893C19.9179 10.0825 20.3062 10.152 20.6696 10.2936L21.189 10.4468C21.4659 10.6078 21.7119 10.8152 21.916 11.0597C21.9942 11.2263 22.0635 11.3968 22.1238 11.5704C22.1696 11.7541 22.1871 11.9435 22.1757 12.1323V12.2344H22.1238L21.7602 12.4387H21.189C20.8113 12.3662 20.4447 12.2461 20.0984 12.0812L19.7868 11.928C19.6464 11.873 19.5216 11.7854 19.4232 11.6726C19.1262 11.4524 18.8787 11.1741 18.6962 10.8554C18.6111 10.7486 18.5527 10.6236 18.5257 10.4906C18.4986 10.3575 18.5037 10.2201 18.5404 10.0893C18.8673 10.0386 19.2002 10.0386 19.5271 10.0893Z"
            fill="#322626"
    />
    <g style="mix-blend-mode: multiply">
        <path
                d="M21.9679 11.7237C21.5746 11.2264 21.0279 10.8679 20.4099 10.7022C19.8096 10.4979 19.1667 10.4452 18.5403 10.549C18.4888 10.3999 18.4888 10.2383 18.5403 10.0893C18.8672 10.0386 19.2001 10.0386 19.527 10.0893C19.9178 10.0825 20.3062 10.152 20.6696 10.2936L21.1889 10.4468C21.4658 10.6078 21.7119 10.8152 21.916 11.0597C21.9941 11.2263 22.0635 11.3968 22.1237 11.5704C22.1237 11.7237 22.1756 11.928 22.1756 12.0812C22.1385 11.9465 22.067 11.8235 21.9679 11.7237Z"
                fill="#140000"
        />
    </g>
    <path
            opacity="0.38"
            d="M21.7083 11.8257H21.6564L21.3448 11.6726H20.7735C20.6697 11.6726 20.0984 11.5705 20.2023 11.8767C20.2905 11.9999 20.4187 12.0899 20.5658 12.1319L21.0332 12.285C21.2376 12.3369 21.452 12.3369 21.6564 12.285C21.7603 12.285 21.968 12.1829 21.968 12.0809C21.968 11.9788 21.7603 11.8767 21.7083 11.8257Z"
            fill="white"
    />
    <path
            opacity="0.38"
            d="M19.4751 11.366H19.7864C19.7864 11.3795 19.7918 11.3925 19.8016 11.4021C19.8113 11.4117 19.8245 11.417 19.8382 11.417H19.6307C19.527 11.366 19.4751 11.315 19.4751 11.2129V11.366Z"
            fill="white"
    />
    <path
            d="M14.5414 6.10531H14.4894V6.00316H14.3856C14.3823 5.9638 14.3637 5.9272 14.3336 5.90101C14.3336 5.79886 14.2817 5.74778 14.2817 5.64563C14.1526 5.37018 14.0652 5.07767 14.022 4.77736L13.8143 4.52199L13.7104 4.41984V4.31769L13.5027 4.16447L13.243 4.01124H13.1911L12.9314 3.80695H12.8276L12.6718 3.7048L12.1005 3.5005L11.3215 3.24512C11.0575 3.22883 10.7929 3.26353 10.5425 3.34727C10.3313 3.49365 10.1832 3.71216 10.127 3.96017C10.0152 4.27109 9.97961 4.60358 10.0232 4.93059C10.0232 5.08381 10.0751 5.23704 10.0751 5.44133C10.074 5.51273 10.0919 5.58317 10.127 5.64563V5.79886L10.2309 6.05423C10.2593 6.21422 10.3118 6.36914 10.3867 6.5139C10.4386 6.5139 10.4386 6.56498 10.4386 6.61605H10.4906L10.5944 6.82035C10.8936 7.26745 11.2824 7.64981 11.737 7.94399L12.1005 8.14829L12.5679 8.30152H13.0353L13.4508 8.40367C13.6585 8.45474 13.8143 8.25044 13.9182 8.09722C14.0078 7.97199 14.0778 7.83426 14.1259 7.68862V7.43325C14.1611 7.37078 14.179 7.30034 14.1778 7.22895V6.97357C14.1755 6.9459 14.1788 6.91805 14.1878 6.8917C14.1967 6.86536 14.211 6.84108 14.2298 6.82035V6.7182C14.2817 6.56498 14.3856 6.46283 14.4375 6.3096V6.05423L14.5414 6.10531Z"
            fill="#6A4D3B"
    />
    <g style="mix-blend-mode: screen">
        <path
                d="M10.127 3.9089C10.1832 3.6609 10.3313 3.44238 10.5425 3.296C10.7929 3.21226 11.0575 3.17756 11.3215 3.19386L12.1005 3.44923C12.3883 3.52033 12.667 3.62313 12.9314 3.75568C13.3664 4.01379 13.7387 4.36245 14.022 4.77717C14.0861 4.98998 14.1732 5.19545 14.2817 5.39007C14.2817 5.49221 14.3336 5.54329 14.3336 5.64544C14.4239 5.78858 14.4938 5.94325 14.5413 6.10511C14.4894 6.05404 14.4375 6.00296 14.4375 5.95189L14.1778 5.44114C14.0346 5.05461 13.8037 4.70527 13.5027 4.41965C13.0519 3.96015 12.4742 3.64055 11.8408 3.5003C11.5554 3.41339 11.2561 3.37877 10.9579 3.39815C10.8346 3.4297 10.7197 3.48711 10.6211 3.56646C10.5225 3.64581 10.4425 3.7452 10.3867 3.85783C10.246 4.10769 10.1744 4.38945 10.1789 4.67502C10.1272 5.09912 10.1272 5.52778 10.1789 5.95189C10.1822 5.99125 10.2008 6.02784 10.2309 6.05404C10.1548 5.85642 10.1025 5.65072 10.0751 5.44114C9.96234 4.93411 9.9802 4.40742 10.127 3.9089Z"
                fill="#6A4D3B"
        />
    </g>
    <g style="mix-blend-mode: multiply" opacity="0.47">
        <path
                d="M11.2177 7.4332L12.0486 7.84179C12.3353 7.99046 12.6631 8.0442 12.9834 7.99502C13.0353 7.99502 13.0353 7.94394 13.0353 7.89287C13.0353 7.84179 13.1911 7.2289 13.1392 6.92245H13.0873C12.9997 6.98817 12.8972 7.03184 12.7886 7.04964C12.6799 7.06745 12.5685 7.05885 12.4641 7.0246L12.1005 6.8203C12.303 6.86079 12.513 6.84388 12.7061 6.77154C12.8991 6.6992 13.0674 6.57441 13.1911 6.4117C13.2809 6.23022 13.3141 6.02665 13.2863 5.82666C13.2586 5.62668 13.1713 5.43926 13.0353 5.28806C12.787 4.96607 12.4673 4.70405 12.1005 4.52194C11.9558 4.40919 11.7883 4.3281 11.6092 4.28406C11.4301 4.24002 11.2435 4.23406 11.0619 4.26657C10.863 4.34596 10.6979 4.49023 10.5945 4.67516C10.6268 4.45254 10.7162 4.24165 10.8541 4.06227C10.9528 3.9461 11.0864 3.86373 11.2358 3.82701C11.3851 3.7903 11.5424 3.80114 11.6851 3.85797L12.3083 4.11334L12.8795 4.47087C13.0938 4.61333 13.2862 4.78533 13.4508 4.98161C13.6299 5.15626 13.7712 5.36474 13.8663 5.59451C13.9764 6.08018 13.9025 6.58869 13.6585 7.0246C13.6585 7.07567 13.7105 7.12675 13.7624 7.07567C13.8143 7.0246 14.074 6.8203 14.1779 6.616C14.2797 6.31977 14.3323 6.00934 14.3337 5.69666C14.4187 5.8035 14.4771 5.92846 14.5041 6.06151C14.5312 6.19455 14.5262 6.33199 14.4895 6.46278C14.4375 6.616 14.3337 6.71815 14.2817 6.87137C14.2363 7.03771 14.2187 7.21023 14.2298 7.38212C14.1968 7.70756 14.0904 8.02166 13.9182 8.30146C13.8143 8.45469 13.6585 8.65899 13.4508 8.60791L13.0353 8.50576H12.5679L12.1005 8.35254L11.737 8.14824C11.2824 7.85405 10.8936 7.4717 10.5945 7.0246C10.5041 6.88146 10.4342 6.72679 10.3867 6.56493C10.601 6.90674 10.8837 7.20215 11.2177 7.4332Z"
                fill="#6A4D3B"
        />
    </g>
    <path
            opacity="0.47"
            d="M11.2177 3.85791C11.6858 3.88793 12.1359 4.04726 12.516 4.31758C12.8917 4.55107 13.2252 4.84452 13.5028 5.18585C13.6364 5.30671 13.7355 5.45991 13.7902 5.63018C13.8449 5.80045 13.8532 5.98184 13.8144 6.15627C13.8013 6.31371 13.7268 6.46008 13.6066 6.56487L13.5028 6.66702L13.295 7.02454C13.2009 7.32209 13.1831 7.63791 13.2431 7.94388H13.1912C13.0975 7.69911 13.0795 7.43259 13.1392 7.17776L13.295 6.87131L13.1392 6.97346C12.9536 7.04365 12.754 7.07094 12.5559 7.05323C12.3578 7.03552 12.1665 6.97328 11.9967 6.87131C11.7942 6.77224 11.63 6.61084 11.5293 6.41164H11.6332C11.7407 6.55966 11.8804 6.68228 12.042 6.77062C12.2037 6.85896 12.3834 6.9108 12.568 6.92239H13.0354L13.4508 6.56487C13.5547 6.36057 13.7105 6.20734 13.7105 6.00305C13.7143 5.82094 13.6598 5.64226 13.5547 5.4923C13.3148 5.12261 12.9958 4.80886 12.6199 4.57296C12.2941 4.30964 11.9254 4.10242 11.5293 3.96006C11.3961 3.92442 11.255 3.92979 11.125 3.97545C10.995 4.02111 10.8823 4.10487 10.8022 4.21543C10.6553 4.44404 10.5828 4.71133 10.5945 4.98155H10.5426C10.4906 4.52188 10.6464 3.90898 11.2177 3.85791Z"
            fill="#2E1B0C"
    />
    <g style="mix-blend-mode: screen" opacity="0.43">
        <path
                d="M15.0087 28.8846C15.0195 28.76 15.0547 28.6386 15.1124 28.5271L15.2681 27.761C15.3882 27.2582 15.4577 26.745 15.4756 26.2288C15.4756 26.1777 15.5274 26.2288 15.5274 26.2288C15.572 26.7587 15.5371 27.2922 15.4237 27.8121C15.379 28.0733 15.3095 28.3298 15.2162 28.5782C15.1643 28.6803 15.1643 28.8336 15.1124 28.9357L14.9568 29.3443H14.853L15.0087 28.8846Z"
                fill="#9C8268"
        />
    </g>
    <g style="mix-blend-mode: screen" opacity="0.43">
        <path
                d="M15.0085 28.0674H15.0604L14.7491 29.5996C14.7354 29.5996 14.7222 29.5942 14.7125 29.5847C14.7027 29.5751 14.6973 29.5621 14.6973 29.5485C14.7511 29.0459 14.8554 28.5498 15.0085 28.0674Z"
                fill="#9C8268"
        />
    </g>
    <g style="mix-blend-mode: screen" opacity="0.43">
        <path
                d="M12.7235 30.1104C12.8231 29.8994 12.8929 29.676 12.931 29.4464C13.0839 28.9988 13.1883 28.5366 13.2423 28.0674C13.2942 27.812 13.2942 27.5566 13.346 27.3013C13.3598 27.3013 13.373 27.3067 13.3827 27.3162C13.3925 27.3258 13.3979 27.3388 13.3979 27.3523C13.3817 28.2937 13.2064 29.2258 12.8791 30.1104C12.7784 30.3419 12.6568 30.5641 12.516 30.7743C12.516 30.8254 12.4641 30.7743 12.4641 30.7233C12.5816 30.5331 12.6691 30.3264 12.7235 30.1104Z"
                fill="#9C8268"
        />
    </g>
    <g style="mix-blend-mode: screen" opacity="0.43">
        <path
                d="M12.412 30.2637C12.5059 29.9285 12.5753 29.5871 12.6195 29.2422H12.6714C12.6274 29.604 12.558 29.9624 12.4639 30.3148C12.366 30.6628 12.2447 31.0041 12.1007 31.3362C12.0869 31.3362 12.0738 31.3309 12.064 31.3213C12.0543 31.3117 12.0488 31.2987 12.0488 31.2852C12.1526 30.9787 12.3082 30.6212 12.412 30.2637Z"
                fill="#9C8268"
        />
    </g>
    <g style="mix-blend-mode: screen" opacity="0.43">
        <path
                d="M12.1002 30.5701L11.9446 31.2852C11.9446 31.3362 11.9446 31.3362 11.8927 31.3873H11.8408C11.9344 31.1041 12.0038 30.8136 12.0483 30.519C12.0551 30.519 12.0619 30.5204 12.0682 30.5229C12.0745 30.5255 12.0802 30.5293 12.085 30.534C12.0898 30.5387 12.0937 30.5444 12.0963 30.5506C12.0989 30.5568 12.1002 30.5634 12.1002 30.5701Z"
                fill="#9C8268"
        />
    </g>
    <g style="mix-blend-mode: screen" opacity="0.43">
        <path
                d="M10.8022 27.8631C10.906 27.5567 10.9579 27.1992 11.0616 26.8416C11.1654 26.4841 11.1654 26.8416 11.1135 26.8927C11.0616 26.9438 11.0098 27.5567 10.906 27.9142C10.8022 28.2717 10.8022 27.9142 10.8022 27.8631Z"
                fill="#9C8268"
        />
    </g>
    <path
            d="M27.7326 24.1345C28.0781 23.2869 28.5507 22.4949 29.1348 21.7851C29.4486 21.4258 29.8164 21.1157 30.2254 20.8657C29.5103 21.3536 28.923 22.0012 28.5116 22.7555C28.0569 23.5552 27.6746 24.3926 27.3691 25.2581L26.9017 26.5861C26.9017 26.5861 26.7978 26.5861 26.8497 26.535C27.077 25.7125 27.3723 24.9097 27.7326 24.1345Z"
            fill="#6F5D49"
    />
    <path
            d="M27.6805 22.7042C28.093 22.1628 28.563 21.6663 29.0827 21.2231L30.0175 20.5591H30.0694C28.9302 21.3382 27.9739 22.3483 27.265 23.5214L26.6938 24.4918C26.68 24.4918 26.6668 24.4864 26.6571 24.4769C26.6473 24.4673 26.6418 24.4543 26.6418 24.4408C26.9175 23.8238 27.2662 23.2409 27.6805 22.7042Z"
            fill="#6F5D49"
    />
    <path
            d="M26.2783 21.9382C27.1093 21.1721 27.8883 20.2017 28.9789 19.742C29.2881 19.5865 29.6216 19.4829 29.9656 19.4355C29.3864 19.5674 28.8393 19.8104 28.3557 20.1506L27.0054 21.3253L26.3303 21.9893C26.2783 21.9893 26.2264 21.9893 26.2783 21.9382Z"
            fill="#6F5D49"
    />
    <path
            d="M29.3424 24.0834C29.4709 23.3979 29.68 22.7295 29.9656 22.0915L30.5368 21.1211C30.5506 21.1211 30.5638 21.1265 30.5736 21.1361C30.5833 21.1456 30.5888 21.1586 30.5888 21.1722C30.1822 21.7266 29.8829 22.3499 29.7059 23.0109C29.5009 23.6627 29.3447 24.3285 29.2385 25.0028C29.1866 25.4114 29.1866 25.7689 29.1346 26.1264C29.0827 26.4839 29.0308 26.1264 29.0308 26.0753C29.0838 25.4046 29.1879 24.7388 29.3424 24.0834Z"
            fill="#6F5D49"
    />
    <g style="mix-blend-mode: screen" opacity="0.37">
        <path
                d="M27.7846 9.57812L28.5636 9.98672L29.3945 10.3442L31.2641 11.0082L32.4066 11.3657C32.4066 11.3657 32.4586 11.4168 32.4066 11.4168L31.4199 11.1614L30.4332 10.855L29.4984 10.4464L28.6155 10.0889L27.7846 9.6292C27.7326 9.57813 27.7846 9.57812 27.7846 9.57812Z"
                fill="#B28767"
        />
    </g>
    <g style="mix-blend-mode: screen" opacity="0.37">
        <path
                d="M30.537 11.2129C31.0112 11.3965 31.4969 11.5499 31.9911 11.6722C32.0431 11.6722 32.0431 11.7233 31.9911 11.7233C31.4904 11.6243 31.0026 11.4702 30.537 11.2639C30.4851 11.2129 30.4851 11.2129 30.537 11.2129Z"
                fill="#B28767"
        />
    </g>
    <g style="mix-blend-mode: screen" opacity="0.37">
        <path
                d="M30.485 11.5192L31.0563 11.7233L31.6276 11.9275C31.6276 11.9275 31.6795 11.9785 31.6276 11.9785L31.3679 11.8764L31.0563 11.7744L30.4331 11.5702C30.4331 11.5192 30.4331 11.4682 30.485 11.5192Z"
                fill="#B28767"
        />
    </g>
    <g style="mix-blend-mode: screen" opacity="0.37">
        <path
                d="M30.5369 11.8765L30.9519 12.0296L31.1594 12.1316L31.315 12.2848C31.3669 12.3358 31.315 12.3358 31.2632 12.3358L31.1075 12.1827L30.9519 12.0806L30.5369 11.9275V11.8765Z"
                fill="#B28767"
        />
    </g>
    <g style="mix-blend-mode: screen" opacity="0.37">
        <path
                d="M16.7227 25.4625C16.8204 25.0977 16.9418 24.7394 17.0863 24.39C17.3638 23.6936 17.7687 23.0532 18.2807 22.5002L18.7481 22.1427L19.3194 21.7852H19.3713C18.7058 22.123 18.1485 22.6357 17.7614 23.2663C17.3708 23.9212 17.0737 24.6258 16.8785 25.3604C16.7227 25.7179 16.6708 26.1265 16.515 26.5351C16.3592 26.9437 16.4111 26.5351 16.4631 26.484C16.4821 26.1303 16.5703 25.7835 16.7227 25.4625Z"
                fill="#B28767"
        />
    </g>
    <g style="mix-blend-mode: screen" opacity="0.37">
        <path
                d="M16.7223 24.2875C16.8143 23.9379 16.9727 23.6086 17.1892 23.3171C17.2411 23.266 17.2929 23.3171 17.2411 23.3681C17.0407 23.6624 16.8998 23.9918 16.826 24.3385C16.7703 24.6859 16.6835 25.0277 16.5666 25.36C16.5666 25.4111 16.4629 25.36 16.4629 25.309C16.4629 25.2579 16.6185 24.5939 16.7223 24.2875Z"
                fill="#B28767"
        />
    </g>
    <g style="mix-blend-mode: screen" opacity="0.37">
        <path
                d="M7.94602 24.8495C7.81682 24.2604 7.81682 23.6509 7.94602 23.0618C7.98477 22.7662 8.05438 22.4752 8.15375 22.1936C8.25229 21.8789 8.37378 21.5717 8.51729 21.2742L8.98469 20.2017C8.99846 20.2017 9.01167 20.207 9.02141 20.2166C9.03115 20.2262 9.03662 20.2392 9.03662 20.2527L8.67309 21.1721C8.52958 21.4695 8.40809 21.7768 8.30955 22.0914C8.15118 22.6769 8.04689 23.2752 7.99795 23.879V24.5941C8.04399 24.4807 8.06179 24.3581 8.04989 24.2366C8.12253 23.799 8.24446 23.3707 8.41342 22.9597C8.42024 22.9597 8.42699 22.961 8.4333 22.9636C8.4396 22.9661 8.44532 22.9699 8.45014 22.9747C8.45497 22.9794 8.45879 22.985 8.4614 22.9912C8.46401 22.9974 8.46535 23.0041 8.46535 23.0108C8.30714 23.4218 8.20244 23.8508 8.15375 24.2876C8.07626 24.7099 8.02424 25.1362 7.99795 25.5645C7.99795 25.6156 7.89409 25.5645 7.89409 25.5645C7.89409 25.5645 7.94602 25.1048 7.94602 24.9005V24.8495Z"
                fill="#B28767"
        />
    </g>
    <g style="mix-blend-mode: screen" opacity="0.37">
        <path
                d="M21.1371 9.32275C21.4486 9.46242 21.7445 9.63359 22.02 9.8335C22.2868 10.0872 22.4834 10.4036 22.5912 10.7528H22.5393C22.3616 10.4437 22.1528 10.1528 21.9161 9.88458C21.6774 9.68529 21.416 9.51389 21.1371 9.37383C21.0852 9.32275 21.1371 9.32275 21.1371 9.32275Z"
                fill="#B28767"
        />
    </g>
    <g style="mix-blend-mode: screen" opacity="0.37">
        <path
                d="M21.6043 9.8335C21.7927 9.92842 21.9534 10.069 22.0712 10.2421C22.2209 10.3907 22.3438 10.5635 22.4344 10.7528H22.3306C22.1809 10.3992 21.9282 10.0971 21.6043 9.88457C21.5525 9.88457 21.5525 9.8335 21.6043 9.8335Z"
                fill="#B28767"
        />
    </g>
    <g style="mix-blend-mode: screen" opacity="0.37">
        <path
                d="M22.5392 11.2639C22.6476 11.4585 22.7345 11.664 22.7986 11.8768C22.8687 12.091 22.8865 12.3185 22.8505 12.5408C22.8505 12.5408 22.7467 12.5408 22.7467 12.4897C22.7607 12.0666 22.6718 11.6463 22.4873 11.2639C22.4873 11.2128 22.5392 11.2639 22.5392 11.2639Z"
                fill="#B28767"
        />
    </g>
    <g style="mix-blend-mode: screen" opacity="0.37">
        <path
                d="M22.1755 13.3577C22.3158 13.5036 22.4221 13.6779 22.4868 13.8684C22.5721 14.0612 22.6078 14.2717 22.5906 14.4813H22.5387L22.383 13.9195L22.0718 13.4598C22.0718 13.3066 22.1237 13.3066 22.1755 13.3577Z"
                fill="#B28767"
        />
    </g>
    <g style="mix-blend-mode: screen" opacity="0.37">
        <path
                d="M21.864 13.46C21.9159 13.46 21.9678 13.46 21.9678 13.511C22.0779 13.6079 22.1668 13.7257 22.2293 13.8574C22.2917 13.9891 22.3263 14.1319 22.3309 14.2772H22.279C22.2247 14.0002 22.0788 13.7488 21.864 13.5621V13.46Z"
                fill="#B28767"
        />
    </g>
    <g style="mix-blend-mode: screen" opacity="0.37">
        <path
                d="M20.41 13.1025L21.1371 13.3067C21.3833 13.3442 21.6059 13.4718 21.7603 13.6639H21.7084L21.4487 13.5108L21.0852 13.3577L20.41 13.2046C20.3581 13.1536 20.3581 13.1025 20.41 13.1025Z"
                fill="#B28767"
        />
    </g>
    <g style="mix-blend-mode: screen" opacity="0.37">
        <path
                d="M17.8134 10.4463C17.8271 10.4463 17.8403 10.4517 17.8501 10.4612C17.8598 10.4708 17.8653 10.4838 17.8653 10.4974C17.8666 10.7602 17.9194 11.0203 18.0209 11.2635C18.1024 11.5106 18.2066 11.75 18.3322 11.9785C18.3322 12.0296 18.3322 12.0296 18.2803 11.9785C18.1285 11.7565 18.0065 11.5162 17.9171 11.2635C17.8279 11.0005 17.7927 10.7228 17.8134 10.4463Z"
                fill="#B28767"
        />
    </g>
    <g style="mix-blend-mode: screen" opacity="0.37">
        <path
                d="M17.6056 10.7532C17.6056 10.7021 17.6575 10.7532 17.6575 10.7532C17.679 10.9802 17.7313 11.2033 17.8131 11.4166C17.865 11.4677 17.7612 11.4677 17.7612 11.4166L17.6056 11.1104C17.6056 11.0083 17.5537 10.8552 17.6056 10.7532Z"
                fill="#B28767"
        />
    </g>
    <g style="mix-blend-mode: screen" opacity="0.37">
        <path
                d="M31.2122 22.2957L31.9392 21.9381L32.5624 21.4274C32.9297 21.082 33.2445 20.6863 33.4972 20.2527C33.4972 20.2016 33.5492 20.2527 33.4972 20.2527C33.3551 20.7499 33.0659 21.1944 32.6663 21.5295C32.2765 21.9139 31.7941 22.195 31.2641 22.3467L31.2122 22.2957Z"
                fill="#B28767"
        />
    </g>
    <g style="mix-blend-mode: screen" opacity="0.37">
        <path
                d="M32.5625 21.1724C32.6549 21.0139 32.7783 20.875 32.9257 20.7638C33.0294 20.6106 33.185 20.5084 33.2369 20.3552C33.2888 20.202 33.2888 20.3552 33.2888 20.3552C33.2354 20.5362 33.1267 20.6967 32.9775 20.8149L32.6144 21.2235C32.5625 21.2235 32.5106 21.1724 32.5625 21.1724Z"
                fill="#B28767"
        />
    </g>
    <g style="mix-blend-mode: screen" opacity="0.37">
        <path
                d="M32.5622 20.9164L32.7697 20.6612L32.9253 20.5591C32.9253 20.5081 32.9772 20.457 32.9772 20.406C32.9772 20.3549 33.0291 20.406 33.0291 20.406C33.0291 20.406 32.9772 20.5081 32.9772 20.5591L32.8734 20.7122C32.7697 20.8143 32.7178 20.9163 32.614 20.9674C32.5103 21.0184 32.5103 20.9674 32.5622 20.9164Z"
                fill="#B28767"
        />
    </g>
    <g style="mix-blend-mode: screen" opacity="0.37">
        <path d="M32.5623 20.6612L32.666 20.5591H32.7179L32.6141 20.6612H32.5623Z" fill="#B28767"/>
    </g>
    <g style="mix-blend-mode: color-dodge">
        <path
                d="M14.5415 28.8336V29.2422C14.532 29.3999 14.4969 29.555 14.4376 29.7018C14.4152 29.7859 14.3978 29.8712 14.3857 29.9572C14.3517 30.4186 14.2283 30.8694 14.0221 31.2852L13.8144 31.6938L12.4641 31.5405L11.8929 31.3873H11.8409L10.9581 31.0809L10.4387 30.9276L10.0233 30.7233L9.40008 30.468C9.34815 30.468 9.29621 30.468 9.29621 30.4169L8.67301 30.1615L8.04981 29.804L7.58241 29.4975C5.30279 28.1183 3.42437 26.183 2.12941 23.8793C2.02356 23.7374 1.93631 23.583 1.86974 23.4197C1.66201 23.0621 1.50621 22.7046 1.35041 22.3982C0.45061 20.3686 -0.00925495 18.1769 0.000141134 15.9628V15.5542C0.0526971 14.6468 0.156726 13.7431 0.311741 12.8472C0.446957 12.1524 0.637979 11.4693 0.883008 10.8042C0.883008 10.7021 0.934942 10.651 0.986875 10.5488C0.985738 10.4775 1.00364 10.407 1.03881 10.3445C1.93103 9.64005 2.8677 8.9918 3.84321 8.40371H4.36254C4.34375 8.38298 4.32946 8.35871 4.32053 8.33236C4.3116 8.30602 4.30822 8.27816 4.31061 8.25049H4.41448C4.82994 9.11876 5.24541 9.98703 5.60894 10.8553L6.85535 13.409C7.68628 15.1456 8.62108 16.78 9.55588 18.4654L12.3603 23.4707L13.6586 25.8712C14.0451 26.6357 14.3413 27.4411 14.5415 28.2718V28.8336Z"
                fill="#1D1D1B"
        />
        <path
                d="M14.5415 28.8336V29.2422C14.532 29.3999 14.4969 29.555 14.4376 29.7018C14.4152 29.7859 14.3978 29.8712 14.3857 29.9572C14.3517 30.4186 14.2283 30.8694 14.0221 31.2852L13.8144 31.6938L12.4641 31.5405L11.8929 31.3873H11.8409L10.9581 31.0809L10.4387 30.9276L10.0233 30.7233L9.40008 30.468C9.34815 30.468 9.29621 30.468 9.29621 30.4169L8.67301 30.1615L8.04981 29.804L7.58241 29.4975C5.30279 28.1183 3.42437 26.183 2.12941 23.8793C2.02356 23.7374 1.93631 23.583 1.86974 23.4197C1.66201 23.0621 1.50621 22.7046 1.35041 22.3982C0.45061 20.3686 -0.00925495 18.1769 0.000141134 15.9628V15.5542C0.0526971 14.6468 0.156726 13.7431 0.311741 12.8472C0.446957 12.1524 0.637979 11.4693 0.883008 10.8042C0.883008 10.7021 0.934942 10.651 0.986875 10.5488C0.985738 10.4775 1.00364 10.407 1.03881 10.3445C1.93103 9.64005 2.8677 8.9918 3.84321 8.40371H4.36254C4.34375 8.38298 4.32946 8.35871 4.32053 8.33236C4.3116 8.30602 4.30822 8.27816 4.31061 8.25049H4.41448C4.82994 9.11876 5.24541 9.98703 5.60894 10.8553L6.85535 13.409C7.68628 15.1456 8.62108 16.78 9.55588 18.4654L12.3603 23.4707L13.6586 25.8712C14.0451 26.6357 14.3413 27.4411 14.5415 28.2718V28.8336Z"
                fill="#1D1D1B"
        />
        <path
                d="M17.138 5.49222H17.0861C17.0861 5.44114 17.0342 5.44114 17.0342 5.39007H16.9822C16.9303 5.28792 16.9303 5.18577 16.8784 5.13469C16.8264 5.08362 16.8264 5.03254 16.8264 4.98147L16.7226 4.7261L16.6187 4.21535C16.3633 3.77824 15.9845 3.42339 15.5281 3.19386L14.7491 2.83633L13.9182 2.63203C13.671 2.58646 13.4154 2.62237 13.1911 2.73418C12.9796 2.89097 12.8175 3.10347 12.7237 3.34708C12.7261 3.37475 12.7227 3.40261 12.7138 3.42895C12.7049 3.4553 12.6906 3.47958 12.6718 3.5003V4.21535V4.57287C12.6685 4.66082 12.6863 4.7483 12.7237 4.82824C12.7335 5.00248 12.7685 5.17445 12.8276 5.33899C12.8633 5.49709 12.9155 5.65113 12.9834 5.79866H13.0353C13.0353 5.84974 13.0353 5.90081 13.0872 5.90081H13.1392C13.1533 5.97724 13.1894 6.04811 13.243 6.10511L13.3988 6.30941L13.5027 6.46263C13.5546 6.51371 13.6066 6.61586 13.7104 6.66693L13.8143 6.76908H13.8662L14.2298 7.07553L14.3336 7.17768L14.4894 7.27983H14.7491L15.1646 7.43305H15.6839L16.0474 7.5352C16.3071 7.58628 16.4629 7.38198 16.5668 7.22875C16.7474 6.95586 16.8381 6.63483 16.8264 6.30941C16.8784 6.10511 16.8784 5.95189 16.9303 5.74759L17.0861 5.39007V5.28792V5.08362L17.138 5.49222Z"
                fill="#1D1D1B"
        />
        <path
                d="M12.7237 3.34708C12.8175 3.10347 12.9796 2.89097 13.1911 2.73418C13.4155 2.62237 13.671 2.58646 13.9182 2.63203L14.7491 2.83633L15.5281 3.19386C15.9845 3.42339 16.3634 3.77824 16.6187 4.21535C16.7272 4.40997 16.8143 4.61543 16.8784 4.82825C16.9303 4.87932 16.9303 4.98147 16.9823 5.08362C17.0651 5.20642 17.1184 5.34615 17.1381 5.49222C17.0861 5.49222 17.0861 5.39007 17.0342 5.33899C16.956 5.17239 16.8867 5.00191 16.8265 4.82825C16.6321 4.46909 16.4062 4.1273 16.1513 3.80675C15.689 3.37271 15.114 3.0723 14.4895 2.93848C14.2083 2.83309 13.905 2.79799 13.6066 2.83633C13.3505 2.91303 13.13 3.07571 12.9834 3.29601C12.8899 3.56189 12.8204 3.83534 12.7757 4.1132C12.767 4.53946 12.7844 4.96585 12.8276 5.39007V5.49222C12.7677 5.29284 12.7329 5.08701 12.7237 4.87932C12.594 4.37654 12.594 3.84986 12.7237 3.34708Z"
                fill="#1D1D1B"
        />
        <path
                d="M13.8145 6.82033C14.0796 7.02249 14.3783 7.17801 14.6974 7.28C14.9718 7.40966 15.2772 7.46266 15.5802 7.43323V7.33108C15.5283 6.97356 15.736 6.66711 15.736 6.36066C15.736 6.33357 15.7251 6.30759 15.7056 6.28843C15.6861 6.26927 15.6597 6.25851 15.6322 6.25851C15.5696 6.34499 15.4785 6.40751 15.3744 6.43544C15.2702 6.46337 15.1595 6.45499 15.0609 6.41174L14.6454 6.20744C14.8557 6.25199 15.0744 6.23728 15.2766 6.165C15.4787 6.09271 15.6559 5.9658 15.788 5.79884C15.8786 5.614 15.9073 5.40567 15.87 5.20378C15.8327 5.00189 15.7312 4.81683 15.5802 4.6752C15.3198 4.35101 15.0033 4.0744 14.6454 3.858C14.3376 3.6639 13.9668 3.59096 13.6068 3.6537C13.5064 3.67842 13.4147 3.72948 13.3415 3.80145C13.2684 3.87341 13.2164 3.96357 13.1913 4.0623C13.1949 3.84186 13.2674 3.62785 13.399 3.44941C13.5061 3.32897 13.6488 3.2445 13.8071 3.20787C13.9655 3.17123 14.1315 3.18425 14.2819 3.24511L14.8532 3.50048L15.4764 3.858L15.9957 4.31768C16.1822 4.50624 16.324 4.73296 16.4112 4.98165C16.5422 5.46079 16.4866 5.97076 16.2554 6.41174C16.2034 6.46281 16.3073 6.51389 16.3592 6.46281C16.5232 6.34752 16.6495 6.18781 16.7228 6.00314C16.8657 5.71743 16.937 5.40217 16.9305 5.0838C17.0344 5.33917 17.1902 5.54347 17.0344 5.84992L16.8786 6.20744C16.8266 6.41174 16.8266 6.56496 16.7747 6.76926C16.7863 7.09468 16.6957 7.4157 16.515 7.6886C16.4112 7.84183 16.2034 8.04612 15.9957 7.99505L15.6322 7.8929H15.1128L14.6974 7.73968L14.2819 7.53538C13.8541 7.22671 13.4849 6.84636 13.1913 6.41174L12.9316 5.95206C13.172 6.29007 13.4708 6.58395 13.8145 6.82033Z"
                fill="#1D1D1B"
        />
        <path
                d="M13.8145 3.24512C14.2894 3.2842 14.7416 3.46207 15.1129 3.75586C15.4813 3.9998 15.8287 4.27312 16.1515 4.57306C16.2741 4.70148 16.3658 4.85538 16.4197 5.02336C16.4737 5.19134 16.4885 5.3691 16.4631 5.54348C16.4631 5.6967 16.3073 5.84992 16.2035 6.00315H16.1515C16.0619 6.12837 15.9919 6.2661 15.9438 6.41175C15.8239 6.70418 15.8057 7.02739 15.8919 7.33109H15.788C15.7362 7.07825 15.7362 6.81781 15.788 6.56497C15.7984 6.45637 15.8339 6.35154 15.8919 6.25852L15.788 6.36067C15.5936 6.43155 15.3857 6.45915 15.1791 6.44148C14.9726 6.42382 14.7726 6.36133 14.5935 6.25852C14.4055 6.15675 14.2588 5.99444 14.1781 5.79885H14.23C14.348 5.94818 14.4971 6.07099 14.6673 6.15907C14.8374 6.24716 15.0248 6.29847 15.2167 6.3096H15.6322L16.0477 5.95207H16.0996C16.2172 5.7619 16.3048 5.55524 16.3593 5.33918C16.3315 5.16269 16.2791 4.99082 16.2035 4.82843C15.9305 4.51608 15.6161 4.24122 15.2687 4.01124C14.9412 3.75026 14.5729 3.54327 14.1781 3.39834C14.0495 3.36354 13.9136 3.36419 13.7854 3.40022C13.6572 3.43625 13.5415 3.50628 13.451 3.60264C13.2873 3.84524 13.1972 4.1287 13.1913 4.41983H13.1394C13.1394 3.90909 13.2433 3.34727 13.8145 3.24512Z"
                fill="#1D1D1B"
        />
        <path
                d="M35.99 14.4812C35.938 15.8603 35.3148 17.1882 34.7436 18.414C34.6961 18.5758 34.6262 18.7305 34.5358 18.8737L34.2762 19.4355L34.1723 19.5376C34.1747 19.5653 34.1713 19.5932 34.1624 19.6195C34.1535 19.6458 34.1392 19.6701 34.1204 19.6909C33.8105 20.3945 33.3703 21.0354 32.822 21.5806C32.5506 21.8299 32.2549 22.0523 31.9392 22.2446C31.6748 22.3771 31.396 22.4799 31.1082 22.551C31.1082 22.6021 31.1082 22.6021 31.0563 22.6021H29.0309L28.5116 22.8064H28.148L27.8364 22.9086L27.369 23.0618H26.1746C25.7332 23.026 25.2976 22.9403 24.8762 22.8064L23.5779 22.5C23.1864 22.374 22.7875 22.2717 22.3834 22.1935C21.9781 22.0834 21.5553 22.0488 21.137 22.0914C20.7714 22.174 20.4211 22.3119 20.0984 22.5L19.631 22.8064L19.3713 23.0618C19.3205 23.1749 19.2502 23.2786 19.1636 23.3682L18.6962 24.5429C18.4365 25.0026 18.1768 25.5134 17.9691 25.973C17.7614 26.4327 17.5017 26.9945 17.294 27.5053C17.0862 28.016 16.8266 28.68 16.6188 29.2418C16.4918 29.5402 16.3876 29.8475 16.3072 30.1612C16.2034 30.5187 16.1514 30.8251 16.0476 31.1316C15.9437 31.438 15.9437 31.1316 15.8918 31.0805C15.8035 30.7474 15.7684 30.4027 15.7879 30.059C15.797 29.8513 15.8319 29.6455 15.8918 29.4461C15.758 29.7198 15.6704 30.0131 15.6321 30.3144C15.5373 30.7829 15.3616 31.232 15.1128 31.6423C15.0608 31.6934 15.0089 31.6423 15.0089 31.5912V31.3359L14.8012 31.6423L14.6454 31.8977L13.8144 31.7955L12.4641 31.5402L11.8929 31.3869H11.8409L10.9581 31.0805L10.4387 30.9273V30.5187C10.4907 30.1101 10.4907 29.7526 10.5426 29.395V29.2929C10.4421 29.5087 10.3554 29.7304 10.2829 29.9569C10.1795 30.2411 10.0928 30.531 10.0233 30.8251L9.40008 30.5698C9.45201 30.3144 9.45201 30.059 9.50395 29.8036C9.55588 29.5483 9.55588 29.1907 9.55588 28.9354L9.40008 29.5993C9.34815 29.9058 9.34815 30.2633 9.29621 30.5698L8.67301 30.3144C8.56915 29.7526 8.51721 29.1907 8.46528 28.6289C8.41335 28.0671 8.41335 28.2714 8.41335 28.1182C8.41335 27.9649 8.36141 28.7311 8.30948 29.0375C8.27143 29.3553 8.18385 29.6653 8.04981 29.9569L7.58241 29.6504C7.49208 29.5073 7.42218 29.3526 7.37468 29.1907C7.24677 28.823 7.14269 28.4477 7.06308 28.0671C7.04046 27.7229 6.98835 27.3812 6.90728 27.0456C6.85535 26.5349 6.75148 26.0752 6.69955 25.6155V26.0752C6.64761 26.5859 6.75148 27.0967 6.69955 27.6074C6.69723 27.8372 6.64406 28.0638 6.54375 28.2714C6.53057 28.2801 6.51556 28.2857 6.49985 28.2877C6.48414 28.2898 6.46815 28.2883 6.45311 28.2834C6.43808 28.2785 6.42438 28.2702 6.41309 28.2593C6.40179 28.2484 6.39319 28.235 6.38795 28.2203C6.06507 27.582 5.87107 26.8882 5.81668 26.1773C5.76474 25.8198 5.76474 25.4623 5.71281 25.1048C5.66088 24.7472 5.66088 24.2876 5.66088 23.879C5.66088 23.4704 5.71281 23.4704 5.71281 23.215C5.50508 24.0833 5.45314 25.0026 5.19348 25.8709C4.93381 26.7392 5.03768 25.922 5.03768 25.8709C4.79726 24.8316 4.762 23.7566 4.93381 22.7043C4.98574 22.551 4.98574 22.3978 5.03768 22.2446C4.62221 22.9596 4.41448 23.7768 3.73934 24.2365C3.06421 24.6962 3.58354 24.1854 3.58354 24.1343C3.70643 23.6891 3.91829 23.2724 4.20674 22.9086C4.41467 22.5935 4.5723 22.249 4.67414 21.8871C4.47279 22.0856 4.29825 22.3087 4.15481 22.551C3.97854 22.8591 3.75023 23.1355 3.47968 23.3682L3.01228 23.6236L2.85648 23.5215C2.80498 23.1399 2.85879 22.7518 3.01228 22.3978C3.17403 21.9972 3.31274 21.588 3.42774 21.172C3.48071 21.041 3.51564 20.9036 3.53161 20.7634C3.28057 21.0864 3.08737 21.4491 2.96034 21.836C2.89623 22.0488 2.80918 22.2543 2.70068 22.4489L2.38908 23.2661C2.27162 23.5103 2.18444 23.7675 2.12941 24.0322C2.02356 23.8903 1.93631 23.7359 1.86974 23.5725C1.78228 22.679 1.87044 21.7774 2.12941 20.9166L1.97361 21.1209L1.35041 22.3978C0.45061 20.3682 -0.00925495 18.1765 0.000141134 15.9624V15.707L0.155941 15.5538H0.000141134C0.0526971 14.6465 0.156726 13.7428 0.311741 12.8468C0.446957 12.1521 0.637979 11.4689 0.883008 10.8039H0.986875L1.50621 10.5485H0.986875C0.985738 10.4771 1.00364 10.4067 1.03881 10.3442C1.29848 9.7313 1.55814 9.1184 1.86974 8.5055C2.50868 8.32966 3.13358 8.10773 3.73934 7.84153L5.29734 7.12649H5.34928L6.85535 6.30929L8.41335 5.4921L9.50395 5.13458L9.97135 4.93028H10.1791L10.5426 4.82813C10.5426 4.82142 10.544 4.81478 10.5466 4.80858C10.5492 4.80239 10.553 4.79676 10.5578 4.79201C10.5626 4.78727 10.5684 4.78351 10.5747 4.78094C10.581 4.77838 10.5877 4.77705 10.5945 4.77705L11.4255 4.41953H11.8929L12.2045 4.31738H14.8012L15.3205 4.41953L15.7879 4.52168H16.2034L16.7227 4.62383H16.8266L18.3846 4.98135L19.1116 5.23673L19.631 5.33888L20.2022 5.54317L20.8254 5.6964L21.4486 5.9007C22.9547 6.41144 24.4608 6.97326 25.9668 7.63723L30.4331 9.68022L31.4718 10.191L32.6143 10.8039L33.601 11.2635H33.653L33.9646 11.4168L34.1723 11.5189C34.2242 11.57 34.2762 11.57 34.2762 11.6211C34.7956 11.8659 35.2294 12.257 35.5226 12.7447C35.8787 13.2526 36.044 13.8666 35.99 14.4812Z"
                fill="#1D1D1B"
        />
        <path
                d="M27.4209 9.06726C26.0706 8.45436 24.7204 7.79039 23.3182 7.22857C21.938 6.60358 20.515 6.07451 19.0596 5.64526C17.6055 5.20413 16.1087 4.91314 14.5933 4.77699C14.5414 4.77699 14.5414 4.87914 14.5933 4.93021C15.0754 5.14101 15.5151 5.43509 15.8917 5.79848C15.5346 5.59339 15.15 5.43865 14.7491 5.33881C14.6972 5.33881 14.6453 5.38989 14.6972 5.44096C15.2816 5.9065 15.6851 6.55583 15.8397 7.27965C15.6252 6.89424 15.3441 6.54857 15.0088 6.25815H14.9569C14.7863 6.44964 14.662 6.67664 14.5933 6.92213C14.4985 7.42748 14.481 7.94393 14.5414 8.45436C14.5933 8.81189 14.5933 9.11834 14.6453 9.47586C14.6972 9.83338 14.3856 8.81189 14.2817 8.45436C14.1779 8.09684 14.1779 8.40329 14.1779 8.45436C14.1779 8.50544 14.2298 9.93553 13.9701 10.5995C13.8663 10.0377 13.7105 9.47586 13.6066 8.86296H13.5547C13.3436 8.96162 13.1132 9.01391 12.8795 9.01619C12.4013 9.00547 11.9278 8.91925 11.4773 8.76081C11.1305 8.66222 10.8109 8.4876 10.5425 8.25007L11.5812 8.45436C11.5962 8.44921 11.6097 8.44075 11.6208 8.42964C11.632 8.41853 11.6404 8.40506 11.6454 8.39027C11.6504 8.37548 11.6519 8.35976 11.6498 8.34431C11.6476 8.32886 11.642 8.31409 11.6331 8.30114C11.277 8.16457 10.9442 7.9751 10.6464 7.73932C10.1788 7.34985 9.83599 6.83534 9.65967 6.25815C9.50797 5.92166 9.45404 5.5504 9.50387 5.18559L10.0751 4.93021C11.9493 4.15775 14.0301 4.01415 15.9955 4.52162C17.8132 4.98129 19.6309 5.38989 21.4485 6.00278C23.2662 6.61568 24.4607 7.07535 25.9668 7.73932L30.433 9.78231L32.6142 10.9059L33.6529 11.4167L31.6794 10.7527C30.2139 10.3106 28.7893 9.7467 27.4209 9.06726Z"
                fill="#1D1D1B"
        />
        <path
                d="M20.2542 9.68038C20.7857 9.7536 21.2878 9.9652 21.7083 10.2933C21.9448 10.5315 22.1381 10.8079 22.2796 11.1105C22.4316 11.4396 22.5533 11.7814 22.6431 12.132C22.7392 12.6716 22.7567 13.2219 22.695 13.7663C22.6452 13.5395 22.5381 13.3287 22.3834 13.1535L22.2276 13.0002H21.2928C20.694 12.9736 20.1087 12.8166 19.579 12.5406C18.7481 12.0809 17.8652 11.2637 18.073 10.2422H18.021L16.9304 10.089C17.4255 9.87538 17.9509 9.73759 18.4884 9.68038C19.0725 9.5792 19.6701 9.5792 20.2542 9.68038Z"
                fill="#1D1D1B"
        />
        <path
                d="M34.1203 19.7418C33.404 20.062 32.5985 20.134 31.8352 19.9461C31.5684 19.8667 31.3206 19.7354 31.1064 19.5599C30.8923 19.3844 30.7163 19.1684 30.5888 18.9246C30.3822 18.5481 30.2751 18.1266 30.2772 17.6988C30.2339 17.2874 30.2691 16.8717 30.3811 16.473C30.4292 16.1184 30.5344 15.7736 30.6927 15.4515C30.8485 14.9918 31.0562 14.5322 31.264 14.0725C31.4726 13.6027 31.7339 13.1573 32.043 12.7445C32.2972 12.3423 32.6124 11.9806 32.9778 11.672C33.1663 11.5231 33.3764 11.4026 33.601 11.3145L34.2761 11.723C34.7831 11.9857 35.2125 12.3727 35.5225 12.8467C35.8559 13.3265 36.0201 13.9007 35.9899 14.4811C35.938 15.8601 35.3148 17.188 34.7435 18.4138L34.1203 19.7418Z"
                fill="#1D1D1B"
        />
        <path
                d="M28.096 22.296C28.801 22.3978 29.5126 22.449 30.2252 22.4492C30.7295 22.4645 31.234 22.4303 31.7313 22.3471H31.939C31.0726 22.783 30.1072 22.9939 29.1346 22.96H29.0308C27.9891 22.7993 26.9859 22.4531 26.0706 21.9385L28.096 22.296Z"
                fill="#1D1D1B"
        />
        <path
                d="M10.8019 29.5486C10.8024 30.0632 10.8545 30.5764 10.9575 31.0809L10.4387 30.9277V30.5191C10.4906 30.1105 10.4906 29.7529 10.5425 29.3954L10.8537 28.4761C10.8139 28.8322 10.7965 29.1904 10.8019 29.5486Z"
                fill="#1D1D1B"
        />
        <path
                d="M27.8364 23.3174L27.369 23.4706H26.1745C25.7332 23.4348 25.2976 23.3491 24.8762 23.2152L23.5779 22.9088C23.1864 22.7829 22.7875 22.6805 22.3834 22.6023C21.978 22.4922 21.5553 22.4576 21.137 22.5002C20.7714 22.5829 20.421 22.7207 20.0983 22.9088L19.6309 23.2152L19.3712 23.4706C19.3205 23.5838 19.2502 23.6875 19.1635 23.7771L18.6961 24.5432C18.4364 25.0029 18.1768 25.5136 17.969 25.9733C17.7613 26.4329 17.5016 26.9948 17.2939 27.5055C17.0862 28.0163 16.8265 28.6802 16.6188 29.2421C16.4918 29.5404 16.3876 29.8477 16.3072 30.1614C16.2033 30.5189 16.1514 30.8254 16.0475 31.1318C15.9436 31.4383 15.9436 31.1318 15.8917 31.0807C15.8034 30.7476 15.7684 30.403 15.7878 30.0592C15.797 29.8516 15.8319 29.6457 15.8917 29.4464C15.758 29.7201 15.6703 30.0133 15.632 30.3146C15.5372 30.7832 15.3616 31.2323 15.1127 31.6426C15.0608 31.6936 15.0088 31.6426 15.0088 31.5915V31.3361L14.8011 31.6426L14.6453 31.8979L13.8144 31.7958L12.4641 31.5404C12.6718 31.0807 12.8796 30.6211 13.0354 30.1614C13.2743 29.6634 13.4824 29.1518 13.6586 28.6292C13.7749 28.1926 13.8616 27.749 13.9182 27.3012C13.9825 28.6991 13.807 30.0977 13.3989 31.4383C13.347 31.5404 13.4508 31.5404 13.5028 31.4893C13.6719 31.2331 13.8113 30.959 13.9182 30.6721C14.1725 30.0755 14.3808 29.4608 14.5414 28.8335L14.6972 28.3738L14.5414 29.2421C14.4895 29.4464 14.4895 29.5996 14.4376 29.7528C14.3856 30.1614 14.2818 30.57 14.2298 30.9786C14.1779 31.3872 14.3337 31.0807 14.3856 31.0297C14.4376 30.9786 14.8011 30.2635 15.0088 29.8039C15.3891 28.7597 15.6673 27.6823 15.8398 26.5862C15.8238 27.1754 15.9116 27.7629 16.0994 28.3227C16.0994 28.3738 16.2033 28.4249 16.2033 28.3227C16.2033 28.2206 16.2552 28.1184 16.3072 28.0163C16.5382 27.1345 16.8156 26.265 17.1381 25.4115C17.4366 24.5155 17.9333 23.6957 18.5922 23.0109C18.9576 22.7092 19.3586 22.4519 19.7867 22.2448L20.6177 22.0405H21.5005C22.1242 22.1153 22.7352 22.2698 23.3182 22.5002L25.1359 23.062C25.836 23.2058 26.5499 23.2743 27.2651 23.2663H27.8364V23.3174Z"
                fill="#1D1D1B"
        />
        <path
                d="M10.3868 29.6507C10.3331 29.7077 10.2971 29.7786 10.2829 29.855C10.1795 30.1393 10.0928 30.4292 10.0233 30.7233L9.40008 30.4679C9.45201 30.2126 9.45201 29.9572 9.50395 29.7018C9.55588 29.4464 9.55588 29.0889 9.55588 28.8335L9.40008 29.4975C9.34815 29.804 9.34815 30.1615 9.29621 30.4679L8.67301 30.2126C8.56915 29.6507 8.51721 29.0889 8.46528 28.5271C8.41335 27.9653 8.41335 28.1696 8.41335 28.0164C8.41335 27.8631 8.36141 28.6292 8.30948 28.9357C8.27144 29.2534 8.18385 29.5635 8.04981 29.855L7.58241 29.5486C7.49208 29.4055 7.42218 29.2508 7.37468 29.0889C7.24677 28.7212 7.14269 28.3459 7.06308 27.9653C7.04047 27.6211 6.98835 27.2794 6.90728 26.9438C6.85535 26.433 6.75148 25.9734 6.69955 25.5137V25.9734C6.64761 26.4841 6.75148 26.9949 6.69955 27.5056C6.69723 27.7354 6.64406 27.962 6.54375 28.1696C6.53057 28.1783 6.51556 28.1838 6.49985 28.1859C6.48414 28.188 6.46815 28.1865 6.45311 28.1816C6.43808 28.1767 6.42438 28.1684 6.41309 28.1575C6.40179 28.1465 6.39319 28.1332 6.38795 28.1185C6.06507 27.4802 5.87107 26.7864 5.81668 26.0755C5.76475 25.718 5.76475 25.3605 5.71281 25.0029C5.66088 24.6454 5.66088 24.1858 5.66088 23.7772C5.66088 23.3686 5.71281 23.3686 5.71281 23.1132C5.50508 23.9815 5.45315 24.9008 5.19348 25.7691C4.93381 26.6373 5.03768 25.8201 5.03768 25.7691C4.79726 24.7298 4.762 23.6548 4.93381 22.6024C4.98574 22.4492 4.98574 22.296 5.03768 22.1428C4.62221 22.8578 4.41448 23.675 3.73934 24.1347C3.06421 24.5944 3.58354 24.0836 3.58354 24.0325C3.70643 23.5873 3.91829 23.1706 4.20674 22.8067C4.41467 22.4917 4.5723 22.1472 4.67414 21.7852C4.47279 21.9837 4.29825 22.2069 4.15481 22.4492C3.97854 22.7573 3.75023 23.0337 3.47968 23.2664L3.01228 23.5218L2.85648 23.4196C2.80498 23.0381 2.85879 22.65 3.01228 22.296C3.17403 21.8954 3.31274 21.4861 3.42774 21.0702C3.48071 20.9392 3.51564 20.8017 3.53161 20.6616C3.28057 20.9846 3.08737 21.3473 2.96034 21.7342C2.89623 21.947 2.80918 22.1524 2.70068 22.3471L2.38908 23.1643C2.27162 23.4085 2.18444 23.6657 2.12941 23.9304C2.02356 23.7885 1.93631 23.6341 1.86974 23.4707C1.79546 22.611 1.8835 21.7452 2.12941 20.917L1.97361 21.1213L1.35041 22.3981C0.45061 20.3686 -0.00925495 18.1768 0.000141134 15.9627V15.7074L0.155941 15.5541H0.000141134C0.0526971 14.6468 0.156726 13.7431 0.311741 12.8472C0.311741 12.8983 0.363675 12.9493 0.415608 12.8983C0.693823 12.8832 0.962833 12.795 1.19461 12.6429C1.65564 12.437 2.09125 12.1799 2.49294 11.8768C2.85762 11.6592 3.23973 11.4713 3.63548 11.3149C3.47506 11.5456 3.30168 11.7673 3.11614 11.9789C2.20714 12.8317 1.23505 13.617 0.207875 14.3283C0.155941 14.3283 0.207875 14.4305 0.259808 14.4305L1.29848 14.0219C2.28521 13.5622 3.16808 13.0515 4.10288 12.5407L3.99901 12.6429C3.02683 13.4199 2.21577 14.3736 1.61008 15.452C1.61008 15.5031 1.66201 15.6052 1.71394 15.5031L2.49294 14.8902L3.16808 14.4305C2.87829 14.711 2.61736 15.0189 2.38908 15.3498C1.78045 16.2737 1.29194 17.2689 0.934942 18.3122C0.883008 18.3632 0.986875 18.4143 1.03881 18.3632L1.50621 17.6993C1.84499 17.1915 2.22722 16.713 2.64874 16.2692C2.01261 17.1453 1.55416 18.1337 1.29848 19.1804C1.30372 19.1951 1.31232 19.2085 1.32362 19.2194C1.33491 19.2304 1.34861 19.2386 1.36364 19.2435C1.37868 19.2485 1.39467 19.2499 1.41038 19.2479C1.42609 19.2458 1.4411 19.2402 1.45428 19.2315L1.97361 18.6186C2.17319 18.4568 2.34809 18.2676 2.49294 18.0568C2.1025 18.8062 1.85602 19.62 1.76588 20.4573C1.76588 20.5084 1.86974 20.5595 1.86974 20.5084L2.54488 19.4869C3.01228 18.8229 3.53161 18.21 4.05094 17.5971C3.62009 18.4835 3.27243 19.4066 3.01228 20.3552C3.01228 20.4573 3.11614 20.4573 3.16808 20.4062L3.68741 19.589L4.67414 18.1589L4.46641 18.6186C4.01745 19.483 3.71902 20.4152 3.58354 21.3766C3.58354 21.4277 3.68741 21.4277 3.68741 21.4277C3.93765 21.2326 4.16419 21.0099 4.36254 20.7638C4.82994 20.2019 5.24541 19.6401 5.66088 19.0272C5.33198 19.8617 4.89565 20.6513 4.36254 21.3766C4.31061 21.4277 4.36254 21.5299 4.46641 21.4788C4.57028 21.4277 5.81668 19.9466 6.43988 19.1294C6.32225 19.3377 6.23485 19.5612 6.18021 19.7933C5.79216 20.6778 5.68359 21.6565 5.86861 22.6024C5.86861 22.6535 5.97248 22.6535 5.97248 22.6024C6.21123 21.7936 6.56065 21.0204 7.01115 20.3041L6.85535 20.8148C6.46649 21.7528 6.30641 22.7674 6.38795 23.7772C6.38795 23.8282 6.49181 23.8793 6.49181 23.8282C6.66969 23.4629 6.82575 23.0878 6.95921 22.7046C7.06308 22.3981 7.11501 22.0917 7.21888 21.7852C7.32275 21.4788 7.16695 22.1428 7.11501 22.296C6.84423 23.3468 6.91691 24.4548 7.32275 25.4626C7.32275 25.5648 7.42661 25.5137 7.42661 25.4626C7.45219 24.726 7.61044 23.9997 7.89401 23.3175C7.8523 23.4142 7.83451 23.5192 7.84208 23.6239C7.64226 24.7257 7.67763 25.8562 7.94595 26.9438C7.99788 26.9949 8.10175 26.9949 8.10175 26.9438C8.10175 26.8927 8.25755 25.9734 8.30948 25.5137C8.45118 24.8037 8.64205 24.104 8.88075 23.4196C8.82049 23.7228 8.78575 24.0302 8.77688 24.339C8.70775 25.0519 8.6904 25.7688 8.72495 26.4841C8.72262 27.1935 8.82764 27.8992 9.03655 28.5782C9.08848 28.6292 9.19235 28.6292 9.19235 28.5782L9.34815 27.5567L9.65975 26.382C9.56486 26.9389 9.54739 27.5059 9.60781 28.0674C9.61306 28.0821 9.62166 28.0955 9.63296 28.1064C9.64425 28.1173 9.65794 28.1256 9.67298 28.1305C9.68802 28.1355 9.70401 28.1369 9.71972 28.1349C9.73543 28.1328 9.75044 28.1272 9.76361 28.1185C9.97135 27.5567 10.231 27.0459 10.4387 26.4841C10.2047 27.506 10.152 28.5601 10.2829 29.5997C10.2829 29.6507 10.3349 29.6507 10.3868 29.6507Z"
                fill="#1D1D1B"
        />
        <path
                d="M5.3493 7.12676L4.4145 8.14825C4.38696 8.14825 4.36054 8.15901 4.34106 8.17817C4.32158 8.19733 4.31064 8.22331 4.31064 8.2504L4.15484 8.40362L3.53164 9.01652C2.7007 9.88479 2.02557 10.8552 0.986901 11.5192C0.934968 11.5703 0.986901 11.6724 1.03883 11.6213C1.55332 11.448 2.05632 11.2433 2.5449 11.0084L0.311768 12.796C0.446984 12.1013 0.638005 11.4181 0.883035 10.7531H0.986901L1.50624 10.4977H0.986901C0.985765 10.4263 1.00367 10.3559 1.03883 10.2934C1.2985 9.68049 1.55817 9.0676 1.86977 8.4547C2.50871 8.27885 3.1336 8.05693 3.73937 7.79073L5.29737 7.07568L5.3493 7.12676Z"
                fill="#1D1D1B"
        />
        <path
                d="M33.8607 19.8442C33.0297 20.406 31.9911 20.0995 31.3159 19.1802C30.7976 18.4526 30.5923 17.5532 30.7447 16.6775C31.0726 14.7726 32.0641 13.0392 33.5491 11.7744C34.2761 11.2125 35.159 12.2851 35.5225 12.8469C35.856 13.3268 36.0202 13.9009 35.9899 14.4813C35.8545 16.1392 35.3396 17.7456 34.4839 19.1802C34.3171 19.4355 34.1061 19.6602 33.8607 19.8442Z"
                fill="#1D1D1B"
        />
        <path
                d="M34.5879 18.6693C34.8916 17.8401 35.1176 16.9853 35.263 16.1156C35.4101 15.4265 35.4277 14.7168 35.3149 14.0215C35.2727 13.4288 35.0562 12.861 34.6917 12.3871C34.4384 12.0497 34.0695 11.8138 33.6531 11.7231C34.3801 11.3145 35.2111 12.285 35.5227 12.8468C35.8561 13.3266 36.0203 13.9008 35.9901 14.4812C35.8546 16.1391 35.3398 17.7454 34.484 19.18C34.3973 19.2697 34.327 19.3733 34.2763 19.4865L34.5879 18.6693Z"
                fill="#1D1D1B"
        />
        <path
                d="M30.7447 16.6776C31.0726 14.7727 32.0641 13.0393 33.5491 11.7744H33.6529C33.2484 12.1508 32.8988 12.5805 32.6143 13.0513C32.2738 13.6403 32.0285 14.2779 31.8872 14.941C31.7756 15.3958 31.6889 15.8561 31.6275 16.3201C31.6168 16.5596 31.6342 16.7995 31.6795 17.0351C31.711 17.2425 31.801 17.4372 31.9391 17.5969C32.1091 17.7021 32.3137 17.7387 32.5104 17.6991C32.7052 17.5919 32.8807 17.4539 33.0297 17.2905C33.2965 16.8819 33.6102 16.5049 33.9645 16.1668C34.0364 16.0924 34.1277 16.0388 34.2284 16.0117C34.3291 15.9847 34.4354 15.9854 34.5358 16.0136C34.6104 16.0067 34.6854 16.0225 34.7505 16.0591C34.8156 16.0957 34.8675 16.1512 34.8993 16.2179C34.9485 16.2832 34.9792 16.3601 34.9884 16.4409C34.9975 16.5216 34.9847 16.6033 34.9513 16.6776C34.9238 16.8872 34.8715 17.0929 34.7955 17.2905C34.5843 17.7326 34.3413 18.1593 34.0684 18.5673L33.4971 19.3845C33.4452 19.4867 33.4971 19.5378 33.601 19.4867L34.4839 18.9249L34.7435 18.6695C34.6466 18.8345 34.5599 19.005 34.4839 19.1802C34.3171 19.4356 34.1061 19.6603 33.8607 19.8442C33.0297 20.406 31.9911 20.0996 31.3159 19.1802C30.7976 18.4526 30.5923 17.5532 30.7447 16.6776Z"
                fill="#1D1D1B"
        />
        <path
                d="M28.3038 23.1637C27.9724 23.0648 27.6698 22.8899 27.4209 22.6533H27.9922C28.5154 22.6538 29.0372 22.7051 29.5502 22.8064H29.0828L28.5115 23.0106L28.3038 23.1637Z"
                fill="#1D1D1B"
        />
        <path
                d="M33.2377 16.8821L33.6012 16.5246L34.0686 16.167C34.2244 16.116 34.4321 16.0138 34.5879 16.116C34.6718 16.1687 34.7336 16.2492 34.7622 16.3429C34.7908 16.4366 34.7843 16.5373 34.7437 16.6267C34.7418 16.7528 34.7059 16.8762 34.6399 16.9842C34.6399 17.0353 34.5879 17.0864 34.5879 17.1375C34.5879 17.1885 34.536 17.1885 34.4841 17.2396H34.4321V17.0864C34.4576 17.0383 34.4751 16.9866 34.4841 16.9332C34.4841 16.8821 34.536 16.831 34.536 16.7289C34.5404 16.6076 34.5228 16.4865 34.4841 16.3713H34.4321C34.4184 16.3713 34.4052 16.3767 34.3954 16.3863C34.3857 16.3959 34.3802 16.4089 34.3802 16.4224C34.2763 16.4735 34.2763 16.5246 34.2244 16.6267C34.1186 16.7686 34.0313 16.923 33.9647 17.0864C33.8609 17.2396 33.8089 17.3928 33.6531 17.4439C33.5713 17.506 33.4709 17.5397 33.3675 17.5397C33.2641 17.5397 33.1637 17.506 33.0819 17.4439C32.9261 17.2396 33.0819 17.0353 33.2377 16.8821Z"
                fill="#1D1D1B"
        />
        <path
                d="M21.0332 8.86328C21.2012 8.86671 21.3641 8.92014 21.5006 9.01651L22.0199 9.37403C22.1959 9.49004 22.3389 9.64824 22.4354 9.8337C22.5082 9.88889 22.5688 9.95813 22.6135 10.0372C22.6581 10.1162 22.6859 10.2034 22.6951 10.2934H22.6431L22.3835 9.8337L21.968 9.4251C21.7016 9.1733 21.3826 8.98159 21.0332 8.86328Z"
                fill="#1D1D1B"
        />
        <path
                d="M21.7082 9.47607C22.027 9.72167 22.3225 9.99519 22.5911 10.2933C22.7419 10.4312 22.8499 10.6082 22.9026 10.804C22.9726 11.0007 22.9905 11.2116 22.9546 11.4169C22.9546 11.468 22.9027 11.4169 22.8507 11.3658V11.5701H22.7988C22.8032 11.4489 22.7856 11.3278 22.7469 11.2126C22.7364 11.104 22.7009 10.9992 22.643 10.9062H22.6949L22.8507 11.3148C22.8363 11.1411 22.8015 10.9697 22.7469 10.804C22.6803 10.6407 22.593 10.4862 22.4872 10.3443C22.2499 10.0503 21.9699 9.79217 21.6562 9.57822L21.7082 9.47607Z"
                fill="#1D1D1B"
        />
        <path
                d="M18.696 8.8633L18.7998 8.76123H18.9036L18.7479 8.8633C18.696 8.91434 18.6442 8.8633 18.696 8.8633Z"
                fill="#1D1D1B"
        />
        <path
                d="M18.9039 9.0166C18.9039 9.0166 18.9558 9.06764 18.9039 9.06764C18.852 9.06764 18.8001 9.0166 18.9039 9.0166Z"
                fill="#1D1D1B"
        />
        <path
                d="M17.7613 9.98721L18.2287 9.83398H19.7867L20.4099 9.98721C21.0864 10.091 21.7081 10.4147 22.1757 10.9066C22.3043 11.0721 22.3931 11.2642 22.4353 11.4684C22.4873 11.5705 22.4873 11.6727 22.5392 11.7748C22.5911 11.877 22.5911 11.9791 22.5392 12.0302H22.4353C22.4053 12.004 22.3867 11.9674 22.3834 11.928C22.3315 11.8259 22.3315 11.7237 22.2795 11.6727C22.2776 11.5466 22.2418 11.4232 22.1757 11.3152L22.3315 11.8259C22.3763 12.1131 22.3937 12.4038 22.3834 12.6942C22.3315 12.7452 22.2795 12.6431 22.2795 12.6431C22.2955 12.5546 22.277 12.4634 22.2276 12.3877H22.0718C22.0718 12.4013 22.0663 12.4143 22.0566 12.4238C22.0469 12.4334 22.0337 12.4388 22.0199 12.4388H21.8121C21.3959 12.5315 20.9607 12.4958 20.5657 12.3366C19.7938 12.2027 19.0948 11.8047 18.5923 11.213C18.448 11.0311 18.3421 10.8227 18.2807 10.6001C18.2273 10.4165 18.2273 10.2219 18.2807 10.0383H17.8652C17.7613 10.1404 17.7094 9.98721 17.7613 9.98721Z"
                fill="#1D1D1B"
        />
        <path
                d="M19.5271 10.0893C19.9179 10.0825 20.3062 10.152 20.6696 10.2936L21.189 10.4468C21.4659 10.6078 21.7119 10.8152 21.916 11.0597C21.9942 11.2263 22.0635 11.3968 22.1238 11.5704C22.1696 11.7541 22.1871 11.9435 22.1757 12.1323V12.2344H22.1238L21.7602 12.4387H21.189C20.8113 12.3662 20.4447 12.2461 20.0984 12.0812L19.7868 11.928C19.6464 11.873 19.5216 11.7854 19.4232 11.6726C19.1262 11.4524 18.8787 11.1741 18.6962 10.8554C18.6111 10.7486 18.5527 10.6236 18.5257 10.4906C18.4986 10.3575 18.5037 10.2201 18.5404 10.0893C18.8673 10.0386 19.2002 10.0386 19.5271 10.0893Z"
                fill="#1D1D1B"
        />
        <path
                d="M21.9679 11.7237C21.5746 11.2264 21.0279 10.8679 20.4099 10.7022C19.8096 10.4979 19.1667 10.4452 18.5403 10.549C18.4888 10.3999 18.4888 10.2383 18.5403 10.0893C18.8672 10.0386 19.2001 10.0386 19.527 10.0893C19.9178 10.0825 20.3062 10.152 20.6696 10.2936L21.1889 10.4468C21.4658 10.6078 21.7119 10.8152 21.916 11.0597C21.9941 11.2263 22.0635 11.3968 22.1237 11.5704C22.1237 11.7237 22.1756 11.928 22.1756 12.0812C22.1385 11.9465 22.067 11.8235 21.9679 11.7237Z"
                fill="#1D1D1B"
        />
        <path
                d="M21.7083 11.8257H21.6564L21.3448 11.6726H20.7735C20.6697 11.6726 20.0984 11.5705 20.2023 11.8767C20.2905 11.9999 20.4187 12.0899 20.5658 12.1319L21.0332 12.285C21.2376 12.3369 21.452 12.3369 21.6564 12.285C21.7603 12.285 21.968 12.1829 21.968 12.0809C21.968 11.9788 21.7603 11.8767 21.7083 11.8257Z"
                fill="#1D1D1B"
        />
        <path
                d="M19.4751 11.366H19.7864C19.7864 11.3795 19.7918 11.3925 19.8016 11.4021C19.8113 11.4117 19.8245 11.417 19.8382 11.417H19.6307C19.527 11.366 19.4751 11.315 19.4751 11.2129V11.366Z"
                fill="#1D1D1B"
        />
        <path
                d="M14.5414 6.10531H14.4894V6.00316H14.3856C14.3823 5.9638 14.3637 5.9272 14.3336 5.90101C14.3336 5.79886 14.2817 5.74778 14.2817 5.64563C14.1526 5.37018 14.0652 5.07767 14.022 4.77736L13.8143 4.52199L13.7104 4.41984V4.31769L13.5027 4.16447L13.243 4.01124H13.1911L12.9314 3.80695H12.8276L12.6718 3.7048L12.1005 3.5005L11.3215 3.24512C11.0575 3.22883 10.7929 3.26353 10.5425 3.34727C10.3313 3.49365 10.1832 3.71216 10.127 3.96017C10.0152 4.27109 9.97961 4.60358 10.0232 4.93059C10.0232 5.08381 10.0751 5.23704 10.0751 5.44133C10.074 5.51273 10.0919 5.58317 10.127 5.64563V5.79886L10.2309 6.05423C10.2593 6.21422 10.3118 6.36914 10.3867 6.5139C10.4386 6.5139 10.4386 6.56498 10.4386 6.61605H10.4906L10.5944 6.82035C10.8936 7.26745 11.2824 7.64981 11.737 7.94399L12.1005 8.14829L12.5679 8.30152H13.0353L13.4508 8.40367C13.6585 8.45474 13.8143 8.25044 13.9182 8.09722C14.0078 7.97199 14.0778 7.83426 14.1259 7.68862V7.43325C14.1611 7.37078 14.179 7.30034 14.1778 7.22895V6.97357C14.1755 6.9459 14.1788 6.91805 14.1878 6.8917C14.1967 6.86536 14.211 6.84108 14.2298 6.82035V6.7182C14.2817 6.56498 14.3856 6.46283 14.4375 6.3096V6.05423L14.5414 6.10531Z"
                fill="#1D1D1B"
        />
        <path
                d="M10.127 3.9089C10.1832 3.6609 10.3313 3.44238 10.5425 3.296C10.7929 3.21226 11.0575 3.17756 11.3215 3.19386L12.1005 3.44923C12.3883 3.52033 12.667 3.62313 12.9314 3.75568C13.3664 4.01379 13.7387 4.36245 14.022 4.77717C14.0861 4.98998 14.1732 5.19545 14.2817 5.39007C14.2817 5.49221 14.3336 5.54329 14.3336 5.64544C14.4239 5.78858 14.4938 5.94325 14.5413 6.10511C14.4894 6.05404 14.4375 6.00296 14.4375 5.95189L14.1778 5.44114C14.0346 5.05461 13.8037 4.70527 13.5027 4.41965C13.0519 3.96015 12.4742 3.64055 11.8408 3.5003C11.5554 3.41339 11.2561 3.37877 10.9579 3.39815C10.8346 3.4297 10.7197 3.48711 10.6211 3.56646C10.5225 3.64581 10.4425 3.7452 10.3867 3.85783C10.246 4.10769 10.1744 4.38945 10.1789 4.67502C10.1272 5.09912 10.1272 5.52778 10.1789 5.95189C10.1822 5.99125 10.2008 6.02784 10.2309 6.05404C10.1548 5.85642 10.1025 5.65072 10.0751 5.44114C9.96234 4.93411 9.9802 4.40742 10.127 3.9089Z"
                fill="#1D1D1B"
        />
        <path
                d="M11.2177 7.4332L12.0486 7.84179C12.3353 7.99046 12.6631 8.0442 12.9834 7.99502C13.0353 7.99502 13.0353 7.94394 13.0353 7.89287C13.0353 7.84179 13.1911 7.2289 13.1392 6.92245H13.0873C12.9997 6.98817 12.8972 7.03184 12.7886 7.04964C12.6799 7.06745 12.5685 7.05885 12.4641 7.0246L12.1005 6.8203C12.303 6.86079 12.513 6.84388 12.7061 6.77154C12.8991 6.6992 13.0674 6.57441 13.1911 6.4117C13.2809 6.23022 13.3141 6.02665 13.2863 5.82666C13.2586 5.62668 13.1713 5.43926 13.0353 5.28806C12.787 4.96607 12.4673 4.70405 12.1005 4.52194C11.9558 4.40919 11.7883 4.3281 11.6092 4.28406C11.4301 4.24002 11.2435 4.23406 11.0619 4.26657C10.863 4.34596 10.6979 4.49023 10.5945 4.67516C10.6268 4.45254 10.7162 4.24165 10.8541 4.06227C10.9528 3.9461 11.0864 3.86373 11.2358 3.82701C11.3851 3.7903 11.5424 3.80114 11.6851 3.85797L12.3083 4.11334L12.8795 4.47087C13.0938 4.61333 13.2862 4.78533 13.4508 4.98161C13.6299 5.15626 13.7712 5.36474 13.8663 5.59451C13.9764 6.08018 13.9025 6.58869 13.6585 7.0246C13.6585 7.07567 13.7105 7.12675 13.7624 7.07567C13.8143 7.0246 14.074 6.8203 14.1779 6.616C14.2797 6.31977 14.3323 6.00934 14.3337 5.69666C14.4187 5.8035 14.4771 5.92846 14.5041 6.06151C14.5312 6.19455 14.5262 6.33199 14.4895 6.46278C14.4375 6.616 14.3337 6.71815 14.2817 6.87137C14.2363 7.03771 14.2187 7.21023 14.2298 7.38212C14.1968 7.70756 14.0904 8.02166 13.9182 8.30146C13.8143 8.45469 13.6585 8.65899 13.4508 8.60791L13.0353 8.50576H12.5679L12.1005 8.35254L11.737 8.14824C11.2824 7.85405 10.8936 7.4717 10.5945 7.0246C10.5041 6.88146 10.4342 6.72679 10.3867 6.56493C10.601 6.90674 10.8837 7.20215 11.2177 7.4332Z"
                fill="#1D1D1B"
        />
        <path
                d="M11.2177 3.85791C11.6858 3.88793 12.1359 4.04726 12.516 4.31758C12.8917 4.55107 13.2252 4.84452 13.5028 5.18585C13.6364 5.30671 13.7355 5.45991 13.7902 5.63018C13.8449 5.80045 13.8532 5.98184 13.8144 6.15627C13.8013 6.31371 13.7268 6.46008 13.6066 6.56487L13.5028 6.66702L13.295 7.02454C13.2009 7.32209 13.1831 7.63791 13.2431 7.94388H13.1912C13.0975 7.69911 13.0795 7.43259 13.1392 7.17776L13.295 6.87131L13.1392 6.97346C12.9536 7.04365 12.754 7.07094 12.5559 7.05323C12.3578 7.03552 12.1665 6.97328 11.9967 6.87131C11.7942 6.77224 11.63 6.61084 11.5293 6.41164H11.6332C11.7407 6.55966 11.8804 6.68228 12.042 6.77062C12.2037 6.85896 12.3834 6.9108 12.568 6.92239H13.0354L13.4508 6.56487C13.5547 6.36057 13.7105 6.20734 13.7105 6.00305C13.7143 5.82094 13.6598 5.64226 13.5547 5.4923C13.3148 5.12261 12.9958 4.80886 12.6199 4.57296C12.2941 4.30964 11.9254 4.10242 11.5293 3.96006C11.3961 3.92442 11.255 3.92979 11.125 3.97545C10.995 4.02111 10.8823 4.10487 10.8022 4.21543C10.6553 4.44404 10.5828 4.71133 10.5945 4.98155H10.5426C10.4906 4.52188 10.6464 3.90898 11.2177 3.85791Z"
                fill="#1D1D1B"
        />
        <path
                d="M15.0087 28.8846C15.0195 28.76 15.0547 28.6386 15.1124 28.5271L15.2681 27.761C15.3882 27.2582 15.4577 26.745 15.4756 26.2288C15.4756 26.1777 15.5274 26.2288 15.5274 26.2288C15.572 26.7587 15.5371 27.2922 15.4237 27.8121C15.379 28.0733 15.3095 28.3298 15.2162 28.5782C15.1643 28.6803 15.1643 28.8336 15.1124 28.9357L14.9568 29.3443H14.853L15.0087 28.8846Z"
                fill="#1D1D1B"
        />
        <path
                d="M15.0085 28.0674H15.0604L14.7491 29.5996C14.7354 29.5996 14.7222 29.5942 14.7125 29.5847C14.7027 29.5751 14.6973 29.5621 14.6973 29.5485C14.7511 29.0459 14.8554 28.5498 15.0085 28.0674Z"
                fill="#1D1D1B"
        />
        <path
                d="M12.7235 30.1104C12.8231 29.8994 12.8929 29.676 12.931 29.4464C13.0839 28.9988 13.1883 28.5366 13.2423 28.0674C13.2942 27.812 13.2942 27.5566 13.346 27.3013C13.3598 27.3013 13.373 27.3067 13.3827 27.3162C13.3925 27.3258 13.3979 27.3388 13.3979 27.3523C13.3817 28.2937 13.2064 29.2258 12.8791 30.1104C12.7784 30.3419 12.6568 30.5641 12.516 30.7743C12.516 30.8254 12.4641 30.7743 12.4641 30.7233C12.5816 30.5331 12.6691 30.3264 12.7235 30.1104Z"
                fill="#1D1D1B"
        />
        <path
                d="M12.412 30.2637C12.5059 29.9285 12.5753 29.5871 12.6195 29.2422H12.6714C12.6274 29.604 12.558 29.9624 12.4639 30.3148C12.366 30.6628 12.2447 31.0041 12.1007 31.3362C12.0869 31.3362 12.0738 31.3309 12.064 31.3213C12.0543 31.3117 12.0488 31.2987 12.0488 31.2852C12.1526 30.9787 12.3082 30.6212 12.412 30.2637Z"
                fill="#1D1D1B"
        />
        <path
                d="M12.1002 30.5701L11.9446 31.2852C11.9446 31.3362 11.9446 31.3362 11.8927 31.3873H11.8408C11.9344 31.1041 12.0038 30.8136 12.0483 30.519C12.0551 30.519 12.0619 30.5204 12.0682 30.5229C12.0745 30.5255 12.0802 30.5293 12.085 30.534C12.0898 30.5387 12.0937 30.5444 12.0963 30.5506C12.0989 30.5568 12.1002 30.5634 12.1002 30.5701Z"
                fill="#1D1D1B"
        />
        <path
                d="M10.8022 27.8631C10.906 27.5567 10.9579 27.1992 11.0616 26.8416C11.1654 26.4841 11.1654 26.8416 11.1135 26.8927C11.0616 26.9438 11.0098 27.5567 10.906 27.9142C10.8022 28.2717 10.8022 27.9142 10.8022 27.8631Z"
                fill="#1D1D1B"
        />
        <path
                d="M27.7326 24.1345C28.0781 23.2869 28.5507 22.4949 29.1348 21.7851C29.4486 21.4258 29.8164 21.1157 30.2254 20.8657C29.5103 21.3536 28.923 22.0012 28.5116 22.7555C28.0569 23.5552 27.6746 24.3926 27.3691 25.2581L26.9017 26.5861C26.9017 26.5861 26.7978 26.5861 26.8497 26.535C27.077 25.7125 27.3723 24.9097 27.7326 24.1345Z"
                fill="#1D1D1B"
        />
        <path
                d="M27.6805 22.7042C28.093 22.1628 28.563 21.6663 29.0827 21.2231L30.0175 20.5591H30.0694C28.9302 21.3382 27.9739 22.3483 27.265 23.5214L26.6938 24.4918C26.68 24.4918 26.6668 24.4864 26.6571 24.4769C26.6473 24.4673 26.6418 24.4543 26.6418 24.4408C26.9175 23.8238 27.2662 23.2409 27.6805 22.7042Z"
                fill="#1D1D1B"
        />
        <path
                d="M26.2783 21.9382C27.1093 21.1721 27.8883 20.2017 28.9789 19.742C29.2881 19.5865 29.6216 19.4829 29.9656 19.4355C29.3864 19.5674 28.8393 19.8104 28.3557 20.1506L27.0054 21.3253L26.3303 21.9893C26.2783 21.9893 26.2264 21.9893 26.2783 21.9382Z"
                fill="#1D1D1B"
        />
        <path
                d="M29.3424 24.0834C29.4709 23.3979 29.68 22.7295 29.9656 22.0915L30.5368 21.1211C30.5506 21.1211 30.5638 21.1265 30.5736 21.1361C30.5833 21.1456 30.5888 21.1586 30.5888 21.1722C30.1822 21.7266 29.8829 22.3499 29.7059 23.0109C29.5009 23.6627 29.3447 24.3285 29.2385 25.0028C29.1866 25.4114 29.1866 25.7689 29.1346 26.1264C29.0827 26.4839 29.0308 26.1264 29.0308 26.0753C29.0838 25.4046 29.1879 24.7388 29.3424 24.0834Z"
                fill="#1D1D1B"
        />
        <path
                d="M27.7846 9.57812L28.5636 9.98672L29.3945 10.3442L31.2641 11.0082L32.4066 11.3657C32.4066 11.3657 32.4586 11.4168 32.4066 11.4168L31.4199 11.1614L30.4332 10.855L29.4984 10.4464L28.6155 10.0889L27.7846 9.6292C27.7326 9.57813 27.7846 9.57812 27.7846 9.57812Z"
                fill="#1D1D1B"
        />
        <path
                d="M30.537 11.2129C31.0112 11.3965 31.4969 11.5499 31.9911 11.6722C32.0431 11.6722 32.0431 11.7233 31.9911 11.7233C31.4904 11.6243 31.0026 11.4702 30.537 11.2639C30.4851 11.2129 30.4851 11.2129 30.537 11.2129Z"
                fill="#1D1D1B"
        />
        <path
                d="M30.485 11.5192L31.0563 11.7233L31.6276 11.9275C31.6276 11.9275 31.6795 11.9785 31.6276 11.9785L31.3679 11.8764L31.0563 11.7744L30.4331 11.5702C30.4331 11.5192 30.4331 11.4682 30.485 11.5192Z"
                fill="#1D1D1B"
        />
        <path
                d="M30.5369 11.8765L30.9519 12.0296L31.1594 12.1316L31.315 12.2848C31.3669 12.3358 31.315 12.3358 31.2632 12.3358L31.1075 12.1827L30.9519 12.0806L30.5369 11.9275V11.8765Z"
                fill="#1D1D1B"
        />
        <path
                d="M16.7227 25.4625C16.8204 25.0977 16.9418 24.7394 17.0863 24.39C17.3638 23.6936 17.7687 23.0532 18.2807 22.5002L18.7481 22.1427L19.3194 21.7852H19.3713C18.7058 22.123 18.1485 22.6357 17.7614 23.2663C17.3708 23.9212 17.0737 24.6258 16.8785 25.3604C16.7227 25.7179 16.6708 26.1265 16.515 26.5351C16.3592 26.9437 16.4111 26.5351 16.4631 26.484C16.4821 26.1303 16.5703 25.7835 16.7227 25.4625Z"
                fill="#1D1D1B"
        />
        <path
                d="M16.7223 24.2875C16.8143 23.9379 16.9727 23.6086 17.1892 23.3171C17.2411 23.266 17.2929 23.3171 17.2411 23.3681C17.0407 23.6624 16.8998 23.9918 16.826 24.3385C16.7703 24.6859 16.6835 25.0277 16.5666 25.36C16.5666 25.4111 16.4629 25.36 16.4629 25.309C16.4629 25.2579 16.6185 24.5939 16.7223 24.2875Z"
                fill="#1D1D1B"
        />
        <path
                d="M7.94602 24.8495C7.81682 24.2604 7.81682 23.6509 7.94602 23.0618C7.98477 22.7662 8.05438 22.4752 8.15375 22.1936C8.25229 21.8789 8.37378 21.5717 8.51729 21.2742L8.98469 20.2017C8.99846 20.2017 9.01167 20.207 9.02141 20.2166C9.03115 20.2262 9.03662 20.2392 9.03662 20.2527L8.67309 21.1721C8.52958 21.4695 8.40809 21.7768 8.30955 22.0914C8.15118 22.6769 8.04689 23.2752 7.99795 23.879V24.5941C8.04399 24.4807 8.06179 24.3581 8.04989 24.2366C8.12253 23.799 8.24446 23.3707 8.41342 22.9597C8.42024 22.9597 8.42699 22.961 8.4333 22.9636C8.4396 22.9661 8.44532 22.9699 8.45014 22.9747C8.45497 22.9794 8.45879 22.985 8.4614 22.9912C8.46401 22.9974 8.46535 23.0041 8.46535 23.0108C8.30714 23.4218 8.20244 23.8508 8.15375 24.2876C8.07626 24.7099 8.02424 25.1362 7.99795 25.5645C7.99795 25.6156 7.89409 25.5645 7.89409 25.5645C7.89409 25.5645 7.94602 25.1048 7.94602 24.9005V24.8495Z"
                fill="#1D1D1B"
        />
        <path
                d="M21.1371 9.32275C21.4486 9.46242 21.7445 9.63359 22.02 9.8335C22.2868 10.0872 22.4834 10.4036 22.5912 10.7528H22.5393C22.3616 10.4437 22.1528 10.1528 21.9161 9.88458C21.6774 9.68529 21.416 9.51389 21.1371 9.37383C21.0852 9.32275 21.1371 9.32275 21.1371 9.32275Z"
                fill="#1D1D1B"
        />
        <path
                d="M21.6043 9.8335C21.7927 9.92842 21.9534 10.069 22.0712 10.2421C22.2209 10.3907 22.3438 10.5635 22.4344 10.7528H22.3306C22.1809 10.3992 21.9282 10.0971 21.6043 9.88457C21.5525 9.88457 21.5525 9.8335 21.6043 9.8335Z"
                fill="#1D1D1B"
        />
        <path
                d="M22.5392 11.2639C22.6476 11.4585 22.7345 11.664 22.7986 11.8768C22.8687 12.091 22.8865 12.3185 22.8505 12.5408C22.8505 12.5408 22.7467 12.5408 22.7467 12.4897C22.7607 12.0666 22.6718 11.6463 22.4873 11.2639C22.4873 11.2128 22.5392 11.2639 22.5392 11.2639Z"
                fill="#1D1D1B"
        />
        <path
                d="M22.1755 13.3577C22.3158 13.5036 22.4221 13.6779 22.4868 13.8684C22.5721 14.0612 22.6078 14.2717 22.5906 14.4813H22.5387L22.383 13.9195L22.0718 13.4598C22.0718 13.3066 22.1237 13.3066 22.1755 13.3577Z"
                fill="#1D1D1B"
        />
        <path
                d="M21.864 13.46C21.9159 13.46 21.9678 13.46 21.9678 13.511C22.0779 13.6079 22.1668 13.7257 22.2293 13.8574C22.2917 13.9891 22.3263 14.1319 22.3309 14.2772H22.279C22.2247 14.0002 22.0788 13.7488 21.864 13.5621V13.46Z"
                fill="#1D1D1B"
        />
        <path
                d="M20.41 13.1025L21.1371 13.3067C21.3833 13.3442 21.6059 13.4718 21.7603 13.6639H21.7084L21.4487 13.5108L21.0852 13.3577L20.41 13.2046C20.3581 13.1536 20.3581 13.1025 20.41 13.1025Z"
                fill="#1D1D1B"
        />
        <path
                d="M17.8134 10.4463C17.8271 10.4463 17.8403 10.4517 17.8501 10.4612C17.8598 10.4708 17.8653 10.4838 17.8653 10.4974C17.8666 10.7602 17.9194 11.0203 18.0209 11.2635C18.1024 11.5106 18.2066 11.75 18.3322 11.9785C18.3322 12.0296 18.3322 12.0296 18.2803 11.9785C18.1285 11.7565 18.0065 11.5162 17.9171 11.2635C17.8279 11.0005 17.7927 10.7228 17.8134 10.4463Z"
                fill="#1D1D1B"
        />
        <path
                d="M17.6056 10.7532C17.6056 10.7021 17.6575 10.7532 17.6575 10.7532C17.679 10.9802 17.7313 11.2033 17.8131 11.4166C17.865 11.4677 17.7612 11.4677 17.7612 11.4166L17.6056 11.1104C17.6056 11.0083 17.5537 10.8552 17.6056 10.7532Z"
                fill="#1D1D1B"
        />
        <path
                d="M31.2122 22.2957L31.9392 21.9381L32.5624 21.4274C32.9297 21.082 33.2445 20.6863 33.4972 20.2527C33.4972 20.2016 33.5492 20.2527 33.4972 20.2527C33.3551 20.7499 33.0659 21.1944 32.6663 21.5295C32.2765 21.9139 31.7941 22.195 31.2641 22.3467L31.2122 22.2957Z"
                fill="#1D1D1B"
        />
        <path
                d="M32.5625 21.1724C32.6549 21.0139 32.7783 20.875 32.9257 20.7638C33.0294 20.6106 33.185 20.5084 33.2369 20.3552C33.2888 20.202 33.2888 20.3552 33.2888 20.3552C33.2354 20.5362 33.1267 20.6967 32.9775 20.8149L32.6144 21.2235C32.5625 21.2235 32.5106 21.1724 32.5625 21.1724Z"
                fill="#1D1D1B"
        />
        <path
                d="M32.5622 20.9164L32.7697 20.6612L32.9253 20.5591C32.9253 20.5081 32.9772 20.457 32.9772 20.406C32.9772 20.3549 33.0291 20.406 33.0291 20.406C33.0291 20.406 32.9772 20.5081 32.9772 20.5591L32.8734 20.7122C32.7697 20.8143 32.7178 20.9163 32.614 20.9674C32.5103 21.0184 32.5103 20.9674 32.5622 20.9164Z"
                fill="#1D1D1B"
        />
        <path d="M32.5623 20.6612L32.666 20.5591H32.7179L32.6141 20.6612H32.5623Z" fill="#1D1D1B"/>
    </g>
    <defs>
        <radialGradient
                id="paint0_radial_527_1455"
                cx="0"
                cy="0"
                r="1"
                gradientUnits="userSpaceOnUse"
                gradientTransform="translate(16.2709 15.9779) scale(16.2707 16.0017)"
        >
            <stop stop-color="white"/>
            <stop offset="1" stop-color="#A9DFDF"/>
        </radialGradient>
    </defs>
</svg>
