<svg viewBox="0 0 13 14" fill="none" xmlns="http://www.w3.org/2000/svg">
    <path
            d="M12 4L1 4M5 7V10M8 7V10M11 4V12.55C11 12.6693 10.9473 12.7838 10.8536 12.8682C10.7598 12.9526 10.6326 13 10.5 13H2.5C2.36739 13 2.24021 12.9526 2.14645 12.8682C2.05268 12.7838 2 12.6693 2 12.55V4M9 3V2C9 1.73478 8.89464 1.48043 8.70711 1.29289C8.51957 1.10536 8.26522 1 8 1H5C4.73478 1 4.48043 1.10536 4.29289 1.29289C4.10536 1.48043 4 1.73478 4 2V3"
            stroke="#28AFB0"
            stroke-width="1.5"
            stroke-linecap="round"
            stroke-linejoin="round"
    />
</svg>
