<svg width="24" height="24" viewBox="0 0 24 24" fill="none" xmlns="http://www.w3.org/2000/svg">
    <path
            d="M5.11953 16.0815C4.12517 14.4053 3.77694 12.4237 4.14022 10.5088C4.50351 8.59399 5.55332 6.87763 7.09253 5.68205C8.63173 4.48647 10.5545 3.8939 12.4996 4.01563C14.4448 4.13735 16.2787 4.96499 17.6568 6.34314C19.035 7.72128 19.8626 9.55513 19.9844 11.5003C20.1061 13.4455 19.5135 15.3682 18.318 16.9074C17.1224 18.4467 15.406 19.4965 13.4912 19.8598C11.5764 20.2231 9.59477 19.8748 7.91851 18.8805L7.91853 18.8804L5.15433 19.6702C5.03997 19.7029 4.91894 19.7043 4.80381 19.6745C4.68867 19.6447 4.5836 19.5846 4.4995 19.5005C4.4154 19.4164 4.35531 19.3113 4.32548 19.1962C4.29564 19.081 4.29714 18.96 4.32982 18.8457L5.11959 16.0815L5.11953 16.0815Z"
            stroke="#888888"
            stroke-width="1.5"
            stroke-linecap="round"
            stroke-linejoin="round"
    />
</svg>
