<svg viewBox="0 0 16 16" fill="none" xmlns="http://www.w3.org/2000/svg">
    <path fill-rule="evenodd" clip-rule="evenodd"
          d="M2.79799 3.66827C1.81946 4.84212 1.23077 6.35231 1.23077 8C1.23077 11.7385 4.26146 14.7692 8 14.7692C9.64769 14.7692 11.1579 14.1805 12.3317 13.202L2.79799 3.66827ZM3.66827 2.79799L13.202 12.3317C14.1805 11.1579 14.7692 9.64769 14.7692 8C14.7692 4.26146 11.7385 1.23077 8 1.23077C6.35231 1.23077 4.84212 1.81946 3.66827 2.79799ZM13.6575 13.6562C15.1048 12.2085 16 10.2088 16 8C16 3.58172 12.4183 0 8 0C3.58172 0 0 3.58172 0 8C0 12.4183 3.58172 16 8 16C10.2084 16 12.2078 15.1051 13.6554 13.6583L13.6575 13.6562Z"
          fill="#888888"/>
</svg>

