<svg xmlns="http://www.w3.org/2000/svg" width="16" height="16" viewBox="0 0 16 16" fill="none">
	<path d="M2.5 7V4" stroke="#E4E4E4" stroke-width="1.5" stroke-linecap="round" stroke-linejoin="round"/>
	<path d="M1 5.5H4" stroke="#E4E4E4" stroke-width="1.5" stroke-linecap="round" stroke-linejoin="round"/>
	<path d="M5.5 1.5V3.5" stroke="#E4E4E4" stroke-width="1.5" stroke-linecap="round" stroke-linejoin="round"/>
	<path d="M4.5 2.5H6.5" stroke="#E4E4E4" stroke-width="1.5" stroke-linecap="round" stroke-linejoin="round"/>
	<path d="M2.15206 9.34799C3.14351 9.57541 4.17647 9.54726 5.15406 9.2662C6.13165 8.98513 7.02183 8.46035 7.74109 7.74109C8.46035 7.02182 8.98513 6.13164 9.2662 5.15405C9.54726 4.17646 9.57541 3.1435 9.34799 2.15206L9.34807 2.15204C10.3919 2.39282 11.3522 2.90862 12.1293 3.64589C12.9064 4.38315 13.472 5.315 13.7674 6.34468C14.0627 7.37437 14.0771 8.46434 13.8089 9.50144C13.5408 10.5385 12.9999 11.485 12.2424 12.2424C11.485 12.9999 10.5386 13.5408 9.50146 13.8089C8.46436 14.0771 7.37439 14.0627 6.3447 13.7674C5.31502 13.472 4.38317 12.9064 3.6459 12.1293C2.90863 11.3522 2.39283 10.3919 2.15204 9.34808L2.15206 9.34799Z" stroke="#E4E4E4" stroke-width="1.5" stroke-linecap="round" stroke-linejoin="round"/>
</svg>
