<svg width="18" height="18" viewBox="0 0 18 18" fill="none" xmlns="http://www.w3.org/2000/svg">
<path fill-rule="evenodd" clip-rule="evenodd" d="M7.49961 1.89998C4.40681 1.89998 1.89961 4.40718 1.89961 7.49998C1.89961 10.5928 4.40681 13.1 7.49961 13.1C9.04626 13.1 10.445 12.4742 11.4594 11.4598C12.4738 10.4454 13.0996 9.04662 13.0996 7.49998C13.0996 4.40718 10.5924 1.89998 7.49961 1.89998ZM0.0996094 7.49998C0.0996094 3.41307 3.4127 0.0999756 7.49961 0.0999756C11.5865 0.0999756 14.8996 3.41307 14.8996 7.49998C14.8996 9.21871 14.3128 10.8016 13.3299 12.0575L17.636 16.3636C17.9875 16.715 17.9875 17.2849 17.636 17.6364C17.2845 17.9878 16.7147 17.9878 16.3632 17.6364L12.0571 13.3303C10.8012 14.3132 9.21834 14.9 7.49961 14.9C3.4127 14.9 0.0996094 11.5869 0.0996094 7.49998Z" fill="#888888"/>
</svg>
